<svg width="64" height="62" viewBox="0 0 64 62" fill="none" xmlns="http://www.w3.org/2000/svg">
<ellipse cx="32" cy="31" rx="32" ry="31" fill="white"/>
<path d="M28.9999 40.6874C28.7367 40.6888 28.4757 40.64 28.2321 40.5435C27.9884 40.4471 27.7668 40.305 27.5799 40.1255C27.3924 39.9454 27.2436 39.7311 27.1421 39.495C27.0406 39.2589 26.9883 39.0056 26.9883 38.7498C26.9883 38.4941 27.0406 38.2408 27.1421 38.0047C27.2436 37.7686 27.3924 37.5543 27.5799 37.3742L34.1999 30.9998L27.8399 24.5867C27.4674 24.2237 27.2583 23.7326 27.2583 23.2208C27.2583 22.7089 27.4674 22.2179 27.8399 21.8548C28.0258 21.6732 28.247 21.5291 28.4907 21.4307C28.7344 21.3324 28.9959 21.2817 29.2599 21.2817C29.5239 21.2817 29.7853 21.3324 30.029 21.4307C30.2728 21.5291 30.494 21.6732 30.6799 21.8548L38.3999 29.6048C38.7663 29.967 38.9716 30.454 38.9716 30.9611C38.9716 31.4682 38.7663 31.9552 38.3999 32.3173L30.3999 40.0674C30.2204 40.2552 30.0042 40.4066 29.7639 40.5131C29.5236 40.6195 29.2639 40.6787 28.9999 40.6874Z" fill="#3671E9"/>
</svg>
