<svg width="64" height="64" viewBox="0 0 64 64" fill="none" xmlns="http://www.w3.org/2000/svg">
<circle cx="32" cy="32" r="31" stroke="#2B076E" stroke-opacity="0.2" stroke-width="2"/>
<path d="M28.9999 42.0003C28.7367 42.0019 28.4757 41.9514 28.2321 41.8519C27.9884 41.7524 27.7668 41.6057 27.5799 41.4203C27.3924 41.2344 27.2436 41.0132 27.1421 40.7695C27.0406 40.5258 26.9883 40.2644 26.9883 40.0003C26.9883 39.7363 27.0406 39.4749 27.1421 39.2312C27.2436 38.9875 27.3924 38.7663 27.5799 38.5803L34.1999 32.0003L27.8399 25.3803C27.4674 25.0056 27.2583 24.4987 27.2583 23.9703C27.2583 23.442 27.4674 22.9351 27.8399 22.5603C28.0258 22.3729 28.247 22.2241 28.4907 22.1226C28.7344 22.021 28.9959 21.9688 29.2599 21.9688C29.5239 21.9688 29.7853 22.021 30.029 22.1226C30.2728 22.2241 30.494 22.3729 30.6799 22.5603L38.3999 30.5603C38.7663 30.9342 38.9716 31.4368 38.9716 31.9603C38.9716 32.4839 38.7663 32.9865 38.3999 33.3603L30.3999 41.3603C30.2204 41.5542 30.0042 41.7106 29.7639 41.8204C29.5236 41.9303 29.2639 41.9914 28.9999 42.0003Z" fill="#3671E9"/>
</svg>
