<svg width="54" height="35" viewBox="0 0 54 35" fill="none" xmlns="http://www.w3.org/2000/svg">
<path d="M37.4583 19.6667C34.5583 19.6667 30.0392 20.5025 26.5833 22.125C23.1275 20.4779 18.6083 19.6667 15.7083 19.6667C10.4642 19.6667 0 22.3217 0 27.6563V34.4167H53.1667V27.6563C53.1667 22.3217 42.7025 19.6667 37.4583 19.6667ZM27.7917 30.7292H3.625V27.6563C3.625 26.3288 9.81166 23.3542 15.7083 23.3542C21.605 23.3542 27.7917 26.3288 27.7917 27.6563V30.7292ZM49.5417 30.7292H31.4167V27.6563C31.4167 26.5254 30.9333 25.5421 30.16 24.6571C32.2867 23.9196 34.8967 23.3542 37.4583 23.3542C43.355 23.3542 49.5417 26.3288 49.5417 27.6563V30.7292ZM15.7083 17.2083C20.3725 17.2083 24.1667 13.3488 24.1667 8.60417C24.1667 3.85958 20.3725 0 15.7083 0C11.0442 0 7.25 3.85958 7.25 8.60417C7.25 13.3488 11.0442 17.2083 15.7083 17.2083ZM15.7083 3.6875C18.3667 3.6875 20.5417 5.9 20.5417 8.60417C20.5417 11.3083 18.3667 13.5208 15.7083 13.5208C13.05 13.5208 10.875 11.3083 10.875 8.60417C10.875 5.9 13.05 3.6875 15.7083 3.6875ZM37.4583 17.2083C42.1225 17.2083 45.9167 13.3488 45.9167 8.60417C45.9167 3.85958 42.1225 0 37.4583 0C32.7942 0 29 3.85958 29 8.60417C29 13.3488 32.7942 17.2083 37.4583 17.2083ZM37.4583 3.6875C40.1167 3.6875 42.2917 5.9 42.2917 8.60417C42.2917 11.3083 40.1167 13.5208 37.4583 13.5208C34.8 13.5208 32.625 11.3083 32.625 8.60417C32.625 5.9 34.8 3.6875 37.4583 3.6875Z" fill="#FFF7F7"/>
</svg>
