<svg width="26" height="24" viewBox="0 0 26 24" fill="none" xmlns="http://www.w3.org/2000/svg">
<mask id="mask0" mask-type="alpha" maskUnits="userSpaceOnUse" x="0" y="0" width="26" height="24">
<path fill-rule="evenodd" clip-rule="evenodd" d="M0.5 0.75H25.5171V23.4819H0.5V0.75Z" fill="white"/>
</mask>
<g mask="url(#mask0)">
<path fill-rule="evenodd" clip-rule="evenodd" d="M13.0163 2.625C12.4213 2.625 11.8913 2.9325 11.5938 3.44875L2.59628 19.155C2.30378 19.6675 2.30628 20.2788 2.60253 20.79C2.89878 21.3013 3.42878 21.6075 4.02003 21.6075H21.9988C22.5888 21.6075 23.1188 21.3013 23.415 20.79C23.7125 20.2788 23.715 19.6675 23.42 19.155L14.4388 3.44875C14.1425 2.9325 13.6125 2.625 13.0163 2.625M21.9988 23.4825H4.02002C2.75252 23.4825 1.61627 22.8275 0.980017 21.73C0.343767 20.6338 0.340017 19.3225 0.968767 18.2238L9.96877 2.51625C10.6013 1.41 11.74 0.75 13.0163 0.75H13.0175C14.2925 0.75 15.4338 1.41125 16.0663 2.51875L25.0488 18.2238C25.6775 19.3225 25.6738 20.6338 25.0375 21.73C24.4013 22.8275 23.265 23.4825 21.9988 23.4825" fill="#FF0606"/>
</g>
<path fill-rule="evenodd" clip-rule="evenodd" d="M13.0039 14.7051C12.4864 14.7051 12.0664 14.2851 12.0664 13.7676V9.89258C12.0664 9.37508 12.4864 8.95508 13.0039 8.95508C13.5214 8.95508 13.9414 9.37508 13.9414 9.89258V13.7676C13.9414 14.2851 13.5214 14.7051 13.0039 14.7051" fill="#FF0606"/>
<path fill-rule="evenodd" clip-rule="evenodd" d="M13.0082 18.8735C12.317 18.8735 11.752 18.3148 11.752 17.6235C11.752 16.9323 12.3057 16.3735 12.9957 16.3735H13.0082C13.6995 16.3735 14.2582 16.9323 14.2582 17.6235C14.2582 18.3148 13.6995 18.8735 13.0082 18.8735" fill="#FF0606"/>
</svg>
