<svg width="118" height="118" viewBox="0 0 118 118" fill="none" xmlns="http://www.w3.org/2000/svg">
<path d="M61.4516 21.3172C61.4516 19.9365 60.3323 18.8172 58.9516 18.8172C57.5709 18.8172 56.4516 19.9365 56.4516 21.3172H61.4516ZM56.4516 33.862C56.4516 35.2427 57.5709 36.362 58.9516 36.362C60.3323 36.362 61.4516 35.2427 61.4516 33.862H56.4516ZM61.4516 84.0412C61.4516 82.6605 60.3323 81.5412 58.9516 81.5412C57.5709 81.5412 56.4516 82.6605 56.4516 84.0412H61.4516ZM56.4516 96.586C56.4516 97.9667 57.5709 99.086 58.9516 99.086C60.3323 99.086 61.4516 97.9667 61.4516 96.586H56.4516ZM77.7688 36.362C79.1495 36.362 80.2688 35.2427 80.2688 33.862C80.2688 32.4813 79.1495 31.362 77.7688 31.362V36.362ZM52.6792 33.862V31.362V33.862ZM65.224 84.0412V81.5412V84.0412ZM40.1344 81.5412C38.7537 81.5412 37.6344 82.6605 37.6344 84.0412C37.6344 85.4219 38.7537 86.5412 40.1344 86.5412V81.5412ZM65.224 58.9516V56.4516V58.9516ZM52.6792 58.9516V56.4516V58.9516ZM47.8785 34.8169L46.9218 32.5072L47.8785 34.8169ZM41.0893 41.6061L38.7796 40.6494L41.0893 41.6061ZM41.0893 51.2075L38.7796 52.1642L41.0893 51.2075ZM43.8087 55.2773L45.5765 53.5096L43.8087 55.2773ZM47.8785 57.9967L46.9218 60.3064H46.9218L47.8785 57.9967ZM70.0247 83.0863L70.9814 85.396L70.0247 83.0863ZM76.8139 76.2971L79.1236 77.2538L76.8139 76.2971ZM76.8139 66.6957L79.1236 65.739L76.8139 66.6957ZM74.0945 62.6259L72.3268 64.3937L74.0945 62.6259ZM70.0247 59.9065L70.9814 57.5968L70.0247 59.9065ZM112.903 58.9516C112.903 88.7483 88.7483 112.903 58.9516 112.903V117.903C91.5097 117.903 117.903 91.5097 117.903 58.9516H112.903ZM58.9516 112.903C29.155 112.903 5 88.7483 5 58.9516H0C0 91.5097 26.3935 117.903 58.9516 117.903V112.903ZM5 58.9516C5 29.155 29.155 5 58.9516 5V0C26.3935 0 0 26.3935 0 58.9516H5ZM58.9516 5C88.7483 5 112.903 29.155 112.903 58.9516H117.903C117.903 26.3935 91.5097 0 58.9516 0V5ZM56.4516 21.3172V33.862H61.4516V21.3172H56.4516ZM56.4516 84.0412V96.586H61.4516V84.0412H56.4516ZM77.7688 31.362H52.6792V36.362H77.7688V31.362ZM65.224 81.5412H40.1344V86.5412H65.224V81.5412ZM65.224 56.4516H52.6792V61.4516H65.224V56.4516ZM52.6792 31.362C50.7035 31.362 48.7471 31.7512 46.9218 32.5072L48.8352 37.1266C50.0539 36.6218 51.3601 36.362 52.6792 36.362V31.362ZM46.9218 32.5072C45.0965 33.2633 43.438 34.3715 42.0409 35.7685L45.5765 39.3041C46.5092 38.3713 47.6165 37.6314 48.8352 37.1266L46.9218 32.5072ZM42.0409 35.7685C40.6439 37.1656 39.5357 38.8241 38.7796 40.6494L43.399 42.5628C43.9038 41.3441 44.6437 40.2368 45.5765 39.3041L42.0409 35.7685ZM38.7796 40.6494C38.0236 42.4747 37.6344 44.4311 37.6344 46.4068L42.6344 46.4068C42.6344 45.0877 42.8942 43.7815 43.399 42.5628L38.7796 40.6494ZM37.6344 46.4068C37.6344 48.3825 38.0236 50.3389 38.7796 52.1642L43.399 50.2508C42.8942 49.0321 42.6344 47.7259 42.6344 46.4068L37.6344 46.4068ZM38.7796 52.1642C39.5357 53.9895 40.6439 55.6481 42.0409 57.0451L45.5765 53.5096C44.6437 52.5768 43.9038 51.4695 43.399 50.2508L38.7796 52.1642ZM42.0409 57.0451C43.438 58.4421 45.0965 59.5503 46.9218 60.3064L48.8352 55.687C47.6165 55.1822 46.5092 54.4423 45.5765 53.5096L42.0409 57.0451ZM46.9218 60.3064C48.7471 61.0625 50.7035 61.4516 52.6792 61.4516V56.4516C51.3601 56.4516 50.0539 56.1918 48.8352 55.687L46.9218 60.3064ZM65.224 86.5412C67.1997 86.5412 69.1561 86.1521 70.9814 85.396L69.068 80.7766C67.8493 81.2814 66.5431 81.5412 65.224 81.5412V86.5412ZM70.9814 85.396C72.8067 84.6399 74.4653 83.5317 75.8623 82.1347L72.3268 78.5992C71.394 79.5319 70.2867 80.2718 69.068 80.7766L70.9814 85.396ZM75.8623 82.1347C77.2593 80.7377 78.3675 79.0791 79.1236 77.2538L74.5042 75.3404C73.9994 76.5591 73.2595 77.6664 72.3268 78.5992L75.8623 82.1347ZM79.1236 77.2538C79.8797 75.4285 80.2688 73.4721 80.2688 71.4964H75.2688C75.2688 72.8155 75.009 74.1217 74.5042 75.3404L79.1236 77.2538ZM80.2688 71.4964C80.2688 69.5207 79.8797 67.5643 79.1236 65.739L74.5042 67.6524C75.009 68.8711 75.2688 70.1773 75.2688 71.4964H80.2688ZM79.1236 65.739C78.3675 63.9137 77.2593 62.2552 75.8623 60.8581L72.3268 64.3937C73.2595 65.3264 73.9994 66.4338 74.5042 67.6524L79.1236 65.739ZM75.8623 60.8581C74.4653 59.4611 72.8067 58.3529 70.9814 57.5968L69.068 62.2162C70.2867 62.721 71.394 63.4609 72.3268 64.3937L75.8623 60.8581ZM70.9814 57.5968C69.1561 56.8408 67.1997 56.4516 65.224 56.4516V61.4516C66.5431 61.4516 67.8493 61.7114 69.068 62.2162L70.9814 57.5968Z" fill="#130F26"/>
</svg>
