<svg width="119" height="119" viewBox="0 0 119 119" fill="none" xmlns="http://www.w3.org/2000/svg">
<path fill-rule="evenodd" clip-rule="evenodd" d="M59.5 0C26.656 0 0 26.656 0 59.5C0 92.344 26.656 119 59.5 119C92.344 119 119 92.344 119 59.5C119 26.656 92.344 0 59.5 0ZM59.5002 107.1C33.2012 107.1 11.9002 85.7988 11.9002 59.4998C11.9002 48.4923 15.6487 38.3773 21.9557 30.3448L88.6552 97.0443C80.6227 103.351 70.5077 107.1 59.5002 107.1ZM30.343 21.9555L97.0425 88.655C103.349 80.6225 107.098 70.5075 107.098 59.5C107.098 33.201 85.797 11.9 59.498 11.9C48.4905 11.9 38.3755 15.6485 30.343 21.9555Z" fill="#FF0606"/>
</svg>
