<svg width="235" height="72" viewBox="0 0 235 72" fill="none" xmlns="http://www.w3.org/2000/svg">
<path d="M36 71.9999C55.8823 71.9999 72 55.8822 72 35.9999C72 16.1177 55.8823 -6.10352e-05 36 -6.10352e-05C16.1178 -6.10352e-05 0 16.1177 0 35.9999C0 55.8822 16.1178 71.9999 36 71.9999Z" fill="white" fill-opacity="0.1"/>
<path d="M33.9163 50.4832C26.8424 49.4472 21.4136 43.349 21.4136 35.9803C21.4136 28.6116 26.8424 22.5134 33.9163 21.4779V13.8462C22.654 14.9234 13.8462 24.4218 13.8462 35.9803C13.8462 47.5387 22.654 57.0366 33.9163 58.1144V50.4832Z" fill="#0D0D2B"/>
<path d="M48.5969 21.5999L48.4004 22.2678V41.6506L48.5969 41.8467L57.5942 36.5285L48.5969 21.5999Z" fill="#0D0D2B"/>
<path d="M48.5973 21.5999L39.6001 36.5285L48.5973 41.8468V32.439V21.5999Z" fill="#0D0D2B"/>
<path d="M48.5976 44.7736L48.4868 44.9086V51.8131L48.5976 52.1366L57.6002 39.458L48.5976 44.7736Z" fill="#0D0D2B"/>
<path d="M48.5973 52.1366V44.7736L39.6001 39.458L48.5973 52.1366Z" fill="#0D0D2B"/>
<path d="M48.5972 41.8466L57.5943 36.5284L48.5972 32.4389V41.8466Z" fill="#0D0D2B"/>
<path d="M39.6001 36.5284L48.5972 41.8466V32.4389L39.6001 36.5284Z" fill="#0D0D2B"/>
<path d="M78.2955 47H93.5227V43.4659H82.5114V37.1136H92.6477V33.5795H82.5114V27.2614H93.4318V23.7273H78.2955V47ZM119.808 35.3636C119.808 27.8409 115.218 23.4091 109.115 23.4091C103.002 23.4091 98.422 27.8409 98.422 35.3636C98.422 42.875 103.002 47.3182 109.115 47.3182C110.593 47.3182 111.979 47.0568 113.24 46.5568L115.161 49H119.252L116.024 44.8636C118.365 42.8182 119.808 39.5795 119.808 35.3636ZM107.683 39.1818L110.831 43.3182C110.286 43.4659 109.718 43.5341 109.115 43.5341C105.331 43.5341 102.661 40.6591 102.661 35.3636C102.661 30.0682 105.331 27.1932 109.115 27.1932C112.911 27.1932 115.57 30.0682 115.57 35.3636C115.57 38.2273 114.797 40.375 113.479 41.75L111.502 39.1818H107.683ZM139.776 23.7273V38.5795C139.776 41.5 137.742 43.5909 134.549 43.5909C131.344 43.5909 129.321 41.5 129.321 38.5795V23.7273H125.105V38.9318C125.105 43.9318 128.855 47.3523 134.549 47.3523C140.219 47.3523 143.992 43.9318 143.992 38.9318V23.7273H139.776ZM154.07 23.7273H149.854V47H154.07V23.7273ZM158.893 27.2614H166.086V47H170.268V27.2614H177.461V23.7273H158.893V27.2614ZM186.536 23.7273H182.32V47H186.536V23.7273ZM191.95 47H209.177V43.4659H197.189L209.109 26.3523V23.7273H191.882V27.2614H203.882L191.95 44.375V47ZM214.537 47H229.764V43.4659H218.753V37.1136H228.889V33.5795H218.753V27.2614H229.673V23.7273H214.537V47Z" fill="#0D0D2B"/>
</svg>
