<svg width="48" height="48" viewBox="0 0 48 48" fill="none" xmlns="http://www.w3.org/2000/svg">
<path fill-rule="evenodd" clip-rule="evenodd" d="M10.0098 6H37.9898C40.1898 6 41.9898 7.8 41.9898 10V38C41.9898 40.2 40.1898 42 37.9898 42H10.0098C7.80977 42 6.00977 40.2 6.00977 38V10C6.00977 7.8 7.80977 6 10.0098 6ZM27.0098 24C28.6698 24 30.0098 22.66 30.0098 21V18C30.0098 15.8 28.2098 14 26.0098 14H19.9898C18.8898 14 18.0098 14.9 18.0098 16C18.0098 17.1 18.8898 18 19.9898 18H26.0098L25.9898 22H23.9898C22.8898 22 21.9898 22.9 21.9898 24C21.9898 25.1 22.8898 26 23.9898 26H25.9898L26.0098 30H19.9898C18.8898 30 17.9898 30.9 17.9898 32C17.9898 33.1 18.8898 34 19.9898 34H26.0098C28.2098 34 30.0098 32.22 30.0098 30V27C30.0098 25.34 28.6698 24 27.0098 24Z" fill="white"/>
</svg>
