<svg width="100" height="87" viewBox="0 0 100 87" fill="none" xmlns="http://www.w3.org/2000/svg">
<path fill-rule="evenodd" clip-rule="evenodd" d="M29.3358 26.6776L54.035 1.97842C56.6208 -0.651996 60.8117 -0.651996 63.4421 1.93384C65.0471 3.53884 65.7158 5.81259 65.27 8.04175L61.0346 28.4609H86.2242C95.8096 28.4609 102.274 38.2693 98.5292 47.0968L83.995 81.0247C82.5683 84.2793 79.3583 86.4193 75.7917 86.4193H35.6667C30.7625 86.4193 26.75 82.4068 26.75 77.5026V32.9638C26.75 30.6009 27.6863 28.3272 29.3358 26.6776ZM17.8333 77.5027C17.8333 82.4069 13.8208 86.4194 8.91667 86.4194C4.0125 86.4194 0 82.4069 0 77.5027V41.836C0 36.9319 4.0125 32.9194 8.91667 32.9194C13.8208 32.9194 17.8333 36.9319 17.8333 41.836V77.5027Z" fill="#27AE60"/>
</svg>
