<svg width="48" height="40" viewBox="0 0 48 40" fill="none" xmlns="http://www.w3.org/2000/svg">
<path fill-rule="evenodd" clip-rule="evenodd" d="M37.23 19.1673C36.4187 19.1673 35.711 18.5296 35.5941 17.6473C35.4685 16.6803 36.0968 15.7886 37.0029 15.6545C39.2958 15.311 41.0264 13.1887 41.0308 10.7135C41.0308 8.25955 39.3817 6.18435 37.1087 5.78672C36.2092 5.62908 35.5985 4.72089 35.7462 3.75859C35.8962 2.79628 36.7405 2.15161 37.6467 2.30454C41.5225 2.98451 44.3378 6.52316 44.3378 10.7183C44.329 14.9416 41.3726 18.5649 37.4593 19.1508C37.3821 19.1625 37.3049 19.1673 37.23 19.1673Z" fill="white"/>
<mask id="mask0" mask-type="alpha" maskUnits="userSpaceOnUse" x="39" y="23" width="10" height="12">
<path fill-rule="evenodd" clip-rule="evenodd" d="M39.6357 23.5321H48.0002V34.1894H39.6357V23.5321Z" fill="white"/>
</mask>
<g mask="url(#mask0)">
<path fill-rule="evenodd" clip-rule="evenodd" d="M43.7877 34.1894C43.1219 34.1894 42.4936 33.7565 42.2423 33.053C41.916 32.1424 42.3459 31.1213 43.1991 30.7754C44.6939 30.1684 44.6939 29.4979 44.6939 29.1755C44.6939 28.145 43.4659 27.425 41.0451 27.0392C40.1434 26.8933 39.5195 25.9968 39.654 25.0298C39.7885 24.0652 40.6262 23.4229 41.5368 23.5476C46.8787 24.4016 48.0009 27.0791 48.0009 29.1755C48.0009 30.4555 47.5291 32.7918 44.3764 34.0741C44.1824 34.1517 43.9839 34.1894 43.7877 34.1894Z" fill="white"/>
</g>
<path fill-rule="evenodd" clip-rule="evenodd" d="M24.0013 28.0316C18.763 28.0316 12.5172 28.7186 12.5172 31.989C12.5172 35.2853 18.763 35.9771 24.0013 35.9771C29.2396 35.9771 35.4832 35.2924 35.4832 32.029C35.4832 28.7256 29.2396 28.0316 24.0013 28.0316ZM24.0011 39.5063C20.3435 39.5063 9.20996 39.5063 9.20996 31.989C9.20996 24.5023 20.3435 24.5023 24.0011 24.5023C27.6586 24.5023 38.79 24.5023 38.79 32.029C38.79 39.5063 28.0466 39.5063 24.0011 39.5063Z" fill="white"/>
<path fill-rule="evenodd" clip-rule="evenodd" d="M24.0018 3.52927C20.2715 3.52927 17.2379 6.76911 17.2379 10.7501C17.2313 12.6794 17.9235 14.484 19.1912 15.8463C20.4589 17.2086 22.1477 17.9639 23.9467 17.9709L24.0018 19.7355V17.9709C27.7321 17.9709 30.7679 14.7334 30.7679 10.7501C30.7679 6.76911 27.7321 3.52927 24.0018 3.52927ZM24.0017 21.5001H23.9422C21.2525 21.4907 18.7325 20.3661 16.8453 18.3332C14.9537 16.3027 13.9197 13.6064 13.9308 10.743C13.9308 4.8233 18.4481 0 24.0017 0C29.5574 0 34.0748 4.82329 34.0748 10.7501C34.0748 16.6768 29.5574 21.5001 24.0017 21.5001Z" fill="white"/>
<path fill-rule="evenodd" clip-rule="evenodd" d="M10.7707 19.1672C10.6957 19.1672 10.6186 19.1625 10.5414 19.1507C6.62811 18.5649 3.67386 14.9415 3.66504 10.7229C3.66504 6.52311 6.4804 2.98446 10.3562 2.30449C11.2844 2.14921 12.1067 2.80094 12.2566 3.75854C12.4043 4.72085 11.7937 5.62904 10.8941 5.78668C8.62113 6.18431 6.97204 8.2595 6.97204 10.7182C6.97645 13.1887 8.70711 15.3133 10.9978 15.6544C11.9039 15.7885 12.5322 16.6803 12.4065 17.6473C12.2897 18.5296 11.582 19.1672 10.7707 19.1672Z" fill="white"/>
<path fill-rule="evenodd" clip-rule="evenodd" d="M4.21532 34.1894C4.01911 34.1894 3.82069 34.1517 3.62668 34.0741C0.471799 32.7894 0 30.4531 0 29.1755C0 27.0815 1.12218 24.4016 6.46629 23.5476C7.37682 23.4252 8.21018 24.0652 8.34687 25.0298C8.48136 25.9968 7.85744 26.8933 6.95573 27.0391C4.535 27.425 3.307 28.145 3.307 29.1755C3.307 29.4978 3.307 30.166 4.80397 30.7754C5.65718 31.1213 6.08709 32.1424 5.7608 33.053C5.50946 33.7565 4.88113 34.1894 4.21532 34.1894Z" fill="white"/>
</svg>
