<svg width="47" height="52" viewBox="0 0 47 52" fill="none" xmlns="http://www.w3.org/2000/svg">
<path fill-rule="evenodd" clip-rule="evenodd" d="M23.4997 40.2671C22.5263 40.2671 21.7363 39.39 21.7363 38.3094V31.6872C21.7363 30.6065 22.5263 29.7295 23.4997 29.7295C24.4731 29.7295 25.2631 30.6065 25.2631 31.6872V38.3094C25.2631 39.39 24.4731 40.2671 23.4997 40.2671Z" fill="white"/>
<mask id="mask0" mask-type="alpha" maskUnits="userSpaceOnUse" x="0" y="6" width="47" height="28">
<path fill-rule="evenodd" clip-rule="evenodd" d="M0 6.73389H47V33.6481H0V6.73389Z" fill="white"/>
</mask>
<g mask="url(#mask0)">
<path fill-rule="evenodd" clip-rule="evenodd" d="M3.52695 24.5175C9.1134 27.8874 16.1576 29.7328 23.4886 29.7328C30.8338 29.7328 37.885 27.8874 43.4738 24.5175V16.6816C43.4738 13.3535 41.0497 10.6493 38.0661 10.6493H8.95823C5.9628 10.6493 3.52695 13.3431 3.52695 16.6555V24.5175ZM23.4885 33.6481C15.1535 33.6481 7.11943 31.4086 0.872295 27.347C0.331519 26.9972 0 26.3551 0 25.6582V16.6554C0 11.1844 4.0182 6.73389 8.95807 6.73389H38.0659C42.994 6.73389 47.0005 11.1948 47.0005 16.6815V25.6582C47.0005 26.3551 46.6666 26.9972 46.1282 27.347C39.881 31.4086 31.8399 33.6481 23.4885 33.6481Z" fill="white"/>
</g>
<mask id="mask1" mask-type="alpha" maskUnits="userSpaceOnUse" x="13" y="0" width="21" height="11">
<path fill-rule="evenodd" clip-rule="evenodd" d="M13.5078 0H33.493V10.6391H13.5078V0Z" fill="white"/>
</mask>
<g mask="url(#mask1)">
<path fill-rule="evenodd" clip-rule="evenodd" d="M31.7296 10.6379C30.7562 10.6379 29.9662 9.76085 29.9662 8.68021V7.72486C29.9662 5.62361 28.4262 3.9139 26.5335 3.9139H20.4674C18.5746 3.9139 17.0346 5.62361 17.0346 7.72486V8.68021C17.0346 9.76085 16.2446 10.6379 15.2712 10.6379C14.2978 10.6379 13.5078 9.76085 13.5078 8.68021V7.72486C13.5078 3.46494 16.6302 -0.00146484 20.4674 -0.00146484H26.5335C30.3706 -0.00146484 33.493 3.46494 33.493 7.72486V8.68021C33.493 9.76085 32.703 10.6379 31.7296 10.6379Z" fill="white"/>
</g>
<path fill-rule="evenodd" clip-rule="evenodd" d="M37.1367 51.5263H9.86283C4.9841 51.5263 0.876554 47.2951 0.507415 41.8919L0.0606875 35.3427C-0.0121997 34.2647 0.716672 33.3224 1.68772 33.2415C2.66346 33.2023 3.50519 33.9671 3.58043 35.0478L4.02481 41.5943C4.25523 44.9667 6.81803 47.6109 9.86283 47.6109H37.1367C40.1815 47.6109 42.7467 44.9667 42.9748 41.5943L43.4215 35.0478C43.4967 33.9671 44.3596 33.1997 45.3142 33.2415C46.2853 33.3224 47.0118 34.2647 46.9389 35.3427L46.4922 41.8919C46.123 47.2951 42.0155 51.5263 37.1367 51.5263Z" fill="white"/>
</svg>
