<svg width="50" height="33" viewBox="0 0 50 33" fill="none" xmlns="http://www.w3.org/2000/svg">
<path fill-rule="evenodd" clip-rule="evenodd" d="M2.40248 0H26.4273C27.7487 0 28.8298 1.08112 28.8298 2.40249C28.8298 3.72385 27.7487 4.80497 26.4273 4.80497H2.40248C1.08112 4.80497 0 3.72385 0 2.40249C0 1.08112 1.08112 0 2.40248 0ZM2.40248 9.60995H26.4273C27.7487 9.60995 28.8298 10.6911 28.8298 12.0124C28.8298 13.3338 27.7487 14.4149 26.4273 14.4149H2.40248C1.08112 14.4149 0 13.3338 0 12.0124C0 10.6911 1.08112 9.60995 2.40248 9.60995ZM2.40248 24.0248H16.8174C18.1388 24.0248 19.2199 22.9437 19.2199 21.6224C19.2199 20.301 18.1388 19.2199 16.8174 19.2199H2.40248C1.08112 19.2199 0 20.301 0 21.6224C0 22.9437 1.08112 24.0248 2.40248 24.0248ZM48.7704 15.1356L48.5542 14.9194C47.6172 13.9825 46.0796 13.9825 45.1667 14.9434L33.6828 26.4514L28.1571 20.9256C27.2201 19.9887 25.7065 19.9887 24.7696 20.9256L24.5534 21.1419C24.1035 21.5907 23.8507 22.2001 23.8507 22.8356C23.8507 23.4711 24.1035 24.0805 24.5534 24.5294L31.977 31.953C32.914 32.89 34.4276 32.89 35.3645 31.953L48.7704 18.5232C49.7074 17.5862 49.7074 16.0726 48.7704 15.1356Z" fill="white"/>
</svg>
