<svg width="101" height="100" viewBox="0 0 101 100" fill="none" xmlns="http://www.w3.org/2000/svg">
<path fill-rule="evenodd" clip-rule="evenodd" d="M0.00537109 50C0.00537109 22.4 22.4054 0 50.0054 0C77.6054 0 100.005 22.4 100.005 50C100.005 77.6 77.6054 100 50.0054 100C22.4054 100 0.00537109 77.6 0.00537109 50ZM57.0554 83.35V80.45C65.7554 78.8 72.6054 73.8 72.7054 64.65C72.7054 52.05 61.9054 47.7 51.8054 45.1C41.7054 42.5 38.4554 39.75 38.4554 35.55C38.4554 30.75 42.9554 27.35 50.4554 27.35C56.7554 27.35 59.9054 29.8 61.0554 33.6C61.5554 35.4 63.0554 36.7 64.9054 36.7H66.2054C69.1554 36.7 71.2554 33.8 70.2554 31.05C68.3554 25.75 64.0054 21.45 57.1054 19.75V16.65C57.1054 13 54.1054 9.99999 50.4554 9.99999H50.4054C46.7554 9.99999 43.7554 13 43.7554 16.65V19.65C35.1554 21.5 28.2054 27.1 28.2054 35.7C28.2054 45.95 36.7054 51.05 49.1054 54.05C60.2554 56.7 62.4554 60.6 62.4554 64.75C62.4554 67.8 60.2554 72.7 50.4554 72.7C43.1554 72.7 39.3554 70.1 37.9054 66.35C37.2054 64.6 35.7054 63.35 33.8554 63.35H32.6554C29.6554 63.35 27.5054 66.4 28.6554 69.15C31.1554 75.3 37.0554 78.95 43.7054 80.35V83.35C43.7054 87 46.7054 90 50.3554 90H50.4054C54.0554 90 57.0554 87 57.0554 83.35Z" fill="white"/>
</svg>
