<svg width="90" height="90" viewBox="0 0 90 90" fill="none" xmlns="http://www.w3.org/2000/svg">
<g id="filter_none_24px">
<path id="icon/image/filter_none_24px" fill-rule="evenodd" clip-rule="evenodd" d="M78.75 3.75H26.25C22.125 3.75 18.75 7.125 18.75 11.25V63.75C18.75 67.875 22.125 71.25 26.25 71.25H78.75C82.875 71.25 86.25 67.875 86.25 63.75V11.25C86.25 7.125 82.875 3.75 78.75 3.75ZM7.5 18.75C5.4375 18.75 3.75 20.4375 3.75 22.5V78.75C3.75 82.875 7.125 86.25 11.25 86.25H67.5C69.5625 86.25 71.25 84.5625 71.25 82.5C71.25 80.4375 69.5625 78.75 67.5 78.75H15C12.9375 78.75 11.25 77.0625 11.25 75V22.5C11.25 20.4375 9.5625 18.75 7.5 18.75ZM30 63.75H75C77.0625 63.75 78.75 62.0625 78.75 60V15C78.75 12.9375 77.0625 11.25 75 11.25H30C27.9375 11.25 26.25 12.9375 26.25 15V60C26.25 62.0625 27.9375 63.75 30 63.75Z" fill="white"/>
</g>
</svg>
