<svg width="46" height="46" viewBox="0 0 46 46" fill="none" xmlns="http://www.w3.org/2000/svg">
<path d="M35.6597 33.1863L25.6597 23.1863V15.2363C29.0347 14.0113 31.3097 10.5113 30.4847 6.5863C29.8597 3.63631 27.4097 1.28631 24.4347 0.786305C19.7347 0.011305 15.6597 3.6113 15.6597 8.18631C15.6597 11.4363 17.7597 14.1863 20.6597 15.2363V23.1863L10.6597 33.1863H3.15967C1.78467 33.1863 0.659668 34.3113 0.659668 35.6863V43.1863C0.659668 44.5613 1.78467 45.6863 3.15967 45.6863H10.6597C12.0347 45.6863 13.1597 44.5613 13.1597 43.1863V38.0613L23.1597 27.5613L33.1597 38.0613V43.1863C33.1597 44.5613 34.2847 45.6863 35.6597 45.6863H43.1597C44.5347 45.6863 45.6597 44.5613 45.6597 43.1863V35.6863C45.6597 34.3113 44.5347 33.1863 43.1597 33.1863H35.6597Z" fill="white"/>
</svg>
