<svg width="60" height="38" viewBox="0 0 60 38" fill="none" xmlns="http://www.w3.org/2000/svg">
<path fill-rule="evenodd" clip-rule="evenodd" d="M27.0562 8.125C27.0562 12.6208 23.4542 16.25 18.9583 16.25C14.4625 16.25 10.8333 12.6208 10.8333 8.125C10.8333 3.62917 14.4625 0 18.9583 0C23.4542 0 27.0562 3.62917 27.0562 8.125ZM48.7229 8.125C48.7229 12.6208 45.1208 16.25 40.625 16.25C36.1292 16.25 32.5 12.6208 32.5 8.125C32.5 3.62917 36.1292 0 40.625 0C45.1208 0 48.7229 3.62917 48.7229 8.125ZM18.9583 21.6667C12.6479 21.6667 0 24.8354 0 31.1458V35.2083C0 36.6979 1.21875 37.9167 2.70833 37.9167H35.2083C36.6979 37.9167 37.9167 36.6979 37.9167 35.2083V31.1458C37.9167 24.8354 25.2688 21.6667 18.9583 21.6667ZM37.998 21.8021C38.9459 21.7208 39.8396 21.6667 40.6251 21.6667C46.9355 21.6667 59.5834 24.8354 59.5834 31.1458V35.2083C59.5834 36.6979 58.3646 37.9167 56.8751 37.9167H42.8459C43.1438 37.0771 43.3334 36.1563 43.3334 35.2083V31.1458C43.3334 27.1646 41.1938 24.1583 38.1063 21.9104C38.0981 21.9022 38.0899 21.8915 38.081 21.8799C38.0603 21.853 38.0357 21.821 37.998 21.8021Z" fill="white"/>
</svg>
