<svg width="100" height="100" viewBox="0 0 100 100" fill="none" xmlns="http://www.w3.org/2000/svg">
<g id="pin_drop_24px">
<path id="icon/maps/pin_drop_24px" fill-rule="evenodd" clip-rule="evenodd" d="M75.0001 33.3333C75.0001 19.5416 63.7918 8.33331 50.0001 8.33331C36.2084 8.33331 25.0001 19.5416 25.0001 33.3333C25.0001 47.875 40.0834 67.4583 46.7918 75.5C48.4584 77.5 51.5001 77.5 53.1668 75.5C59.9168 67.4583 75.0001 47.875 75.0001 33.3333ZM41.6669 33.3333C41.6669 28.75 45.4169 25 50.0002 25C54.5836 25 58.3336 28.75 58.3336 33.3333C58.3336 37.9166 54.6252 41.6666 50.0002 41.6666C45.4169 41.6666 41.6669 37.9166 41.6669 33.3333ZM25.0002 91.6666C22.7085 91.6666 20.8335 89.7916 20.8335 87.5C20.8335 85.2083 22.7085 83.3333 25.0002 83.3333H75.0002C77.2918 83.3333 79.1668 85.2083 79.1668 87.5C79.1668 89.7916 77.2918 91.6666 75.0002 91.6666H25.0002Z" fill="white"/>
</g>
</svg>
