<svg width="51" height="55" viewBox="0 0 51 55" fill="none" xmlns="http://www.w3.org/2000/svg">
<path fill-rule="evenodd" clip-rule="evenodd" d="M0 27.2137C0 12.1917 11.3985 0 25.4745 0C39.576 0 51 12.1917 51 27.2137C51 42.2356 39.576 54.4274 25.4745 54.4274C11.3985 54.4274 0 42.2356 0 27.2137ZM25.5 36.6024L33.711 41.8818C34.68 42.5077 35.853 41.5825 35.598 40.4123L33.4305 30.4248L40.647 23.7575C41.514 22.9683 41.055 21.4715 39.933 21.3627L30.396 20.4918L26.673 11.1303C26.2395 10.0146 24.7605 10.0146 24.327 11.1303L20.604 20.5191L11.067 21.3899C9.945 21.4988 9.486 22.9955 10.3275 23.7847L17.544 30.4521L15.3765 40.4123C15.1215 41.5825 16.32 42.5077 17.289 41.8818L25.5 36.6024Z" fill="white"/>
</svg>
