<svg width="100" height="100" viewBox="0 0 100 100" fill="none" xmlns="http://www.w3.org/2000/svg">
<g id="thumb_up_alt_24px">
<path id="icon/social/thumb_up_alt_24px" fill-rule="evenodd" clip-rule="evenodd" d="M30.8708 34.5494L53.9541 11.4661C56.3708 9.00778 60.2874 9.00778 62.7458 11.4245C64.2458 12.9245 64.8708 15.0495 64.4541 17.1328L60.4958 36.2161H84.0374C92.9958 36.2161 99.0374 45.3828 95.5374 53.6328L81.9541 85.3411C80.6208 88.3828 77.6208 90.3828 74.2874 90.3828H36.7874C32.2041 90.3828 28.4541 86.6328 28.4541 82.0495V40.4244C28.4541 38.2161 29.3291 36.0911 30.8708 34.5494ZM20.1208 82.0494C20.1208 86.6327 16.3708 90.3827 11.7874 90.3827C7.2041 90.3827 3.4541 86.6327 3.4541 82.0494V48.716C3.4541 44.1327 7.2041 40.3827 11.7874 40.3827C16.3708 40.3827 20.1208 44.1327 20.1208 48.716V82.0494Z" fill="white"/>
</g>
</svg>
