<svg width="76" height="45" viewBox="0 0 76 45" fill="none" xmlns="http://www.w3.org/2000/svg">
<path d="M55.6417 3.93958L61.1017 9.39958L42.5984 27.9029L30.1238 15.4283C29.4154 14.7183 28.4536 14.3193 27.4506 14.3193C26.4477 14.3193 25.4859 14.7183 24.7775 15.4283L2.02752 38.2163C0.54877 39.695 0.54877 42.0838 2.02752 43.5625C3.50627 45.0413 5.89502 45.0413 7.37377 43.5625L27.4317 23.4667L39.9063 35.9413C41.385 37.42 43.7738 37.42 45.2525 35.9413L66.4479 14.7838L71.9079 20.2438C73.0834 21.4192 75.1309 20.585 75.1309 18.9167V2.6125C75.1688 1.55083 74.3346 0.716667 73.2729 0.716667H57.0067C55.3004 0.716667 54.4663 2.76417 55.6417 3.93958Z" fill="white"/>
</svg>
