<svg width="61" height="61" viewBox="0 0 61 61" fill="none" xmlns="http://www.w3.org/2000/svg">
<g id="supervised_user_circle_24px">
<path id="icon/action/supervised_user_circle_24px" fill-rule="evenodd" clip-rule="evenodd" d="M30.5002 5.08333C16.4702 5.08333 5.0835 16.47 5.0835 30.5C5.0835 44.53 16.4702 55.9167 30.5002 55.9167C44.5302 55.9167 55.9168 44.53 55.9168 30.5C55.9168 16.47 44.5302 5.08333 30.5002 5.08333ZM39.6756 21.1975C42.3951 21.1975 44.581 23.3833 44.581 26.1029C44.581 28.8225 42.3951 31.0083 39.6756 31.0083C36.956 31.0083 34.7701 28.8225 34.7701 26.1029C34.7447 23.3833 36.956 21.1975 39.6756 21.1975ZM30.4239 23.18C30.4239 19.8758 27.7297 17.1817 24.4256 17.1817C21.096 17.1817 18.4272 19.8504 18.4272 23.18C18.4272 26.4842 21.1214 29.1783 24.4256 29.1783C27.7297 29.1783 30.4239 26.4842 30.4239 23.18ZM24.4256 40.3871V49.9183C18.3256 48.0121 13.4964 43.31 11.3614 37.3117C14.0302 34.465 20.6893 33.0163 24.4256 33.0163C25.7727 33.0163 27.4756 33.2196 29.2547 33.5754C25.0864 35.7867 24.4256 38.7096 24.4256 40.3871ZM28.4922 50.7316C29.1531 50.8079 29.8139 50.8333 30.5001 50.8333C39.1164 50.8333 46.4618 45.445 49.4356 37.8962C47.0972 35.9646 42.3951 34.9733 39.6756 34.9733C35.9647 34.9733 28.4922 36.7779 28.4922 40.3871V50.7316Z" fill="white"/>
</g>
</svg>
