<svg width="180" height="197" viewBox="0 0 180 197" fill="none" xmlns="http://www.w3.org/2000/svg">
<path fill-rule="evenodd" clip-rule="evenodd" d="M89.8475 153.953C86.1259 153.953 83.1055 150.6 83.1055 146.468V121.149C83.1055 117.018 86.1259 113.665 89.8475 113.665C93.569 113.665 96.5894 117.018 96.5894 121.149V146.468C96.5894 150.6 93.569 153.953 89.8475 153.953Z" fill="white"/>
<mask id="mask0" mask-type="alpha" maskUnits="userSpaceOnUse" x="0" y="25" width="180" height="104">
<path fill-rule="evenodd" clip-rule="evenodd" d="M0 25.7455H179.695V128.647H0V25.7455Z" fill="white"/>
</mask>
<g mask="url(#mask0)">
<path fill-rule="evenodd" clip-rule="evenodd" d="M13.484 93.7376C34.8426 106.621 61.7746 113.677 89.8033 113.677C117.886 113.677 144.845 106.621 166.213 93.7376V63.7784C166.213 51.0542 156.945 40.7152 145.537 40.7152H34.2493C22.7969 40.7152 13.484 51.0143 13.484 63.6786V93.7376ZM89.8033 128.647C57.9362 128.647 27.2197 120.084 3.33504 104.556C1.26749 103.218 0 100.763 0 98.0986V63.6785C0 42.761 15.3627 25.7455 34.2493 25.7455H145.537C164.379 25.7455 179.697 42.8009 179.697 63.7783V98.0986C179.697 100.763 178.42 103.218 176.361 104.556C152.477 120.084 121.733 128.647 89.8033 128.647Z" fill="white"/>
</g>
<mask id="mask1" mask-type="alpha" maskUnits="userSpaceOnUse" x="51" y="0" width="78" height="41">
<path fill-rule="evenodd" clip-rule="evenodd" d="M51.6431 0H128.052V40.6764H51.6431V0Z" fill="white"/>
</mask>
<g mask="url(#mask1)">
<path fill-rule="evenodd" clip-rule="evenodd" d="M121.31 40.676C117.589 40.676 114.568 37.3228 114.568 33.1912V29.5386C114.568 21.5049 108.68 14.9682 101.444 14.9682H78.2515C71.0151 14.9682 65.127 21.5049 65.127 29.5386V33.1912C65.127 37.3228 62.1066 40.676 58.3851 40.676C54.6635 40.676 51.6431 37.3228 51.6431 33.1912V29.5386C51.6431 13.2517 63.5809 -0.00140381 78.2515 -0.00140381H101.444C116.114 -0.00140381 128.052 13.2517 128.052 29.5386V33.1912C128.052 37.3228 125.032 40.676 121.31 40.676Z" fill="white"/>
</g>
<path fill-rule="evenodd" clip-rule="evenodd" d="M141.983 197H37.7071C19.0543 197 3.34993 180.823 1.9386 160.165L0.230632 135.126C-0.0480371 131.004 2.73865 127.401 6.45124 127.092C10.1818 126.942 13.4 129.866 13.6876 133.998L15.3866 159.027C16.2676 171.921 26.0659 182.03 37.7071 182.03H141.983C153.624 182.03 163.432 171.921 164.304 159.027L166.012 133.998C166.299 129.866 169.598 126.932 173.248 127.092C176.961 127.401 179.738 131.004 179.46 135.126L177.752 160.165C176.34 180.823 160.636 197 141.983 197Z" fill="white"/>
</svg>
