<?xml version="1.0" standalone="no"?>
<!DOCTYPE svg PUBLIC "-//W3C//DTD SVG 20010904//EN"
 "http://www.w3.org/TR/2001/REC-SVG-20010904/DTD/svg10.dtd">
<svg version="1.0" xmlns="http://www.w3.org/2000/svg"
 width="1200.000000pt" height="628.000000pt" viewBox="0 0 1200.000000 628.000000"
 preserveAspectRatio="xMidYMid meet">

<g transform="translate(0.000000,628.000000) scale(0.100000,-0.100000)"
fill="#000000" stroke="none">
<path d="M5950 5476 c0 -7 16 -26 36 -41 36 -28 74 -80 74 -102 0 -9 -7 -10
-26 -3 -92 35 -166 -39 -104 -105 30 -32 72 -40 110 -22 16 9 30 12 30 9 0
-18 -42 -73 -75 -97 l-36 -28 -67 31 c-130 60 -238 102 -265 102 -35 0 -197
-38 -424 -101 -150 -41 -521 -129 -544 -129 -4 0 -9 18 -13 40 -7 48 -53 103
-109 132 -30 15 -55 19 -101 17 -34 -2 -89 0 -123 5 -77 10 -143 0 -143 -21 0
-13 8 -15 45 -10 25 4 65 4 90 0 39 -5 43 -8 35 -24 -18 -34 -11 -66 21 -93
36 -30 98 -35 123 -10 25 24 20 71 -10 99 -24 22 -25 25 -8 25 31 0 106 -42
127 -71 10 -14 21 -43 24 -65 l5 -39 -169 -44 c-92 -24 -197 -50 -233 -58
-101 -22 -102 -24 -91 -182 l10 -133 -39 -37 c-26 -24 -41 -49 -46 -75 -4 -22
-1 -148 5 -280 14 -269 25 -312 89 -351 l32 -20 -6 -151 -7 -150 94 -78 c51
-43 142 -113 201 -155 59 -42 108 -79 108 -83 0 -10 -165 -42 -265 -52 -105
-10 -135 -43 -135 -149 l0 -65 -137 -90 c-221 -144 -269 -162 -430 -162 -358
0 -566 186 -561 502 l1 96 52 -5 c59 -6 141 10 199 39 52 26 130 101 150 143
15 30 15 38 3 68 -8 18 -29 45 -46 60 -30 25 -40 27 -124 28 l-92 0 40 15 c22
9 88 26 146 39 59 13 124 32 145 42 88 41 112 174 53 291 -51 103 -122 134
-215 92 -27 -12 -102 -39 -166 -60 l-117 -37 -7 43 c-3 23 -12 45 -18 47 -17
7 -247 -11 -321 -24 -32 -6 -71 -17 -86 -24 -31 -17 -56 -64 -64 -126 -12 -83
-14 -88 -50 -103 -20 -9 -38 -22 -41 -31 -4 -9 -24 -25 -46 -36 -40 -21 -60
-53 -52 -85 4 -16 -23 -30 -183 -96 -103 -43 -261 -102 -350 -132 -195 -67
-347 -140 -391 -191 -53 -60 -37 -98 42 -97 54 1 126 25 579 191 197 72 364
131 370 131 6 0 21 -10 34 -22 15 -14 37 -22 61 -22 20 -1 46 -6 56 -13 13 -7
28 -8 43 -2 33 12 127 -56 117 -86 -3 -11 -8 -81 -11 -155 -4 -112 -1 -151 16
-229 57 -259 203 -416 472 -506 167 -55 325 -78 494 -72 153 6 243 26 343 76
l57 28 24 -23 25 -23 -14 -188 c-7 -103 -14 -337 -14 -520 -1 -378 -7 -353 87
-387 27 -10 46 -20 43 -23 -2 -3 -73 -22 -156 -43 -83 -21 -154 -41 -158 -44
-3 -4 -1 -11 4 -16 6 -6 57 2 144 25 74 19 135 33 137 32 1 -2 0 -12 -3 -24
-6 -22 -49 -37 -179 -64 -65 -13 -81 -22 -71 -37 4 -6 38 -3 93 9 157 35 143
35 143 6 0 -23 -5 -26 -67 -37 -78 -14 -109 -28 -96 -41 5 -5 43 -2 92 7 70
13 85 14 92 2 14 -21 11 -26 -21 -32 -16 -3 -43 -9 -60 -12 -31 -6 -40 -21
-17 -29 6 -3 40 1 74 8 43 9 66 10 73 3 16 -16 12 -26 -14 -26 -25 0 -53 -24
-38 -33 4 -3 28 -1 52 4 24 6 67 7 94 4 31 -4 79 0 121 9 38 8 73 12 77 10 19
-12 4 -23 -42 -29 -34 -5 -50 -12 -50 -22 0 -12 13 -13 78 -8 42 4 88 2 102
-3 25 -9 24 -9 -10 -16 -61 -13 -70 -17 -70 -33 0 -11 6 -14 23 -9 60 17 144
18 173 3 l29 -16 -30 -1 c-46 -1 -75 -11 -75 -26 0 -17 -1 -17 93 -4 55 8 81
8 103 -1 l29 -13 -25 -3 c-77 -10 -90 -15 -90 -29 0 -12 8 -15 38 -10 112 16
141 17 164 5 l23 -13 -25 -7 c-14 -4 -39 -7 -57 -8 -32 -1 -49 -14 -39 -29 3
-5 45 -3 93 3 60 8 95 9 110 2 28 -13 20 -27 -15 -27 -33 0 -57 -14 -48 -28 6
-11 52 -7 114 8 33 9 92 -4 92 -20 0 -4 -24 -11 -52 -16 -37 -6 -53 -14 -53
-24 0 -17 38 -16 117 5 41 10 58 10 94 -1 75 -22 86 -33 34 -34 -60 0 -122
-18 -117 -33 2 -7 13 -11 23 -9 144 20 213 22 245 9 33 -14 33 -15 9 -20 -14
-3 -57 -10 -96 -16 -92 -14 -131 -28 -116 -43 8 -8 24 -7 58 1 27 7 84 16 128
21 44 5 83 13 88 18 12 12 66 2 72 -14 6 -15 -6 -19 -88 -29 -68 -9 -102 -23
-89 -36 7 -7 42 -5 112 6 94 16 103 16 120 1 10 -9 31 -16 47 -17 l29 -1 -30
-9 c-16 -5 -56 -11 -87 -15 -39 -4 -58 -11 -58 -20 0 -17 49 -18 122 -3 63 13
83 26 68 44 -8 10 1 15 37 24 71 18 264 81 295 97 15 8 42 14 60 14 19 0 44 7
57 17 13 9 58 22 100 29 42 7 112 20 156 27 44 8 101 18 128 22 32 4 47 11 47
21 0 18 -47 14 -215 -16 -155 -28 -185 -31 -185 -20 0 6 10 14 23 19 40 15
371 91 422 97 61 6 85 18 69 34 -7 7 -26 7 -60 1 -27 -6 -76 -14 -109 -20 -33
-6 -109 -24 -170 -40 -60 -17 -122 -31 -136 -31 -22 0 -26 4 -22 24 4 20 13
25 51 30 26 3 76 15 110 26 35 11 74 20 87 20 13 0 27 5 31 11 16 27 -19 26
-131 -1 -66 -16 -123 -30 -127 -30 -4 0 -3 13 3 28 9 28 14 29 120 44 101 14
142 28 127 43 -3 4 -54 -1 -114 -9 -60 -8 -109 -14 -111 -13 -11 11 24 30 75
39 42 8 62 16 62 26 0 12 -11 13 -56 7 -55 -7 -56 -6 -49 17 4 12 11 27 14 31
4 4 45 -6 90 -23 69 -25 90 -39 130 -82 l49 -53 88 24 c49 14 125 32 169 42
92 21 213 64 236 85 17 16 34 65 54 159 8 33 44 141 81 240 72 193 84 255 49
264 -11 4 -42 19 -70 36 -32 19 -62 29 -85 28 -46 -1 -312 -79 -364 -105 -23
-12 -54 -24 -70 -27 -24 -5 -32 -15 -47 -61 -10 -30 -18 -65 -18 -77 l-1 -22
-67 25 c-70 27 -149 59 -338 140 -60 26 -148 62 -195 80 -78 30 -85 35 -97 70
-7 20 -18 44 -25 52 -15 17 -13 294 3 376 5 28 14 125 20 216 6 91 14 191 17
223 l7 58 34 -25 c32 -24 51 -26 51 -6 0 6 -19 22 -41 37 l-42 27 7 126 c3 69
9 167 12 218 l7 92 92 0 c242 0 550 -94 649 -199 l30 -31 -21 -22 c-48 -54
-57 -122 -23 -188 l20 -39 -27 -27 c-27 -27 -32 -28 -138 -28 -91 -1 -118 -5
-157 -23 -63 -29 -134 -97 -165 -158 -31 -59 -42 -172 -24 -228 9 -25 9 -42 2
-55 -9 -17 -15 -18 -49 -9 -83 22 -170 -64 -180 -178 -4 -51 -2 -57 30 -89 46
-46 101 -57 131 -27 19 19 20 25 10 63 -10 37 -10 45 4 56 48 36 156 -13 137
-62 -7 -17 -12 -19 -59 -20 -28 -1 -30 -4 -36 -46 -8 -61 3 -86 48 -106 67
-28 93 -33 121 -23 38 14 90 67 102 104 l10 31 83 -9 c156 -16 255 11 336 92
66 66 94 131 99 235 3 51 -1 112 -8 143 l-12 54 46 49 c25 27 51 61 58 75 6
14 23 28 37 31 92 19 153 63 167 120 13 49 -1 141 -26 178 -55 79 -110 66
-131 -31 l-12 -58 -13 64 c-23 108 -73 199 -161 291 -130 137 -230 205 -384
261 -159 58 -362 98 -559 109 -71 4 -116 10 -105 14 11 4 83 31 160 60 l140
52 2 75 c1 41 8 154 14 252 l12 177 47 34 c43 31 47 37 59 102 7 38 16 116 21
174 5 58 16 127 25 154 26 86 21 111 -29 148 -27 20 -43 39 -41 48 13 52 16
132 5 145 -7 8 -56 35 -109 60 -53 25 -151 76 -218 112 l-122 67 44 43 c61 61
80 113 66 188 -14 74 -49 134 -98 168 -44 31 -53 33 -53 13z m98 -190 c12 -11
12 -17 0 -35 -18 -29 -42 -35 -75 -19 -31 15 -43 55 -21 70 17 11 79 1 96 -16z
m-281 -165 c61 -27 185 -89 275 -139 90 -49 195 -106 233 -126 39 -19 65 -35
58 -36 -74 -3 -526 -79 -737 -124 -125 -27 -682 -184 -765 -216 l-54 -21 -50
31 c-28 17 -95 64 -149 103 -53 40 -161 106 -238 148 l-141 76 202 52 c110 29
203 50 206 48 2 -3 -4 -28 -13 -56 -19 -53 -12 -79 12 -46 8 10 22 42 31 71
l16 51 146 32 c80 18 232 55 336 83 335 89 449 117 485 117 22 1 79 -18 147
-48z m-1323 -12 c36 -28 32 -63 -7 -67 -54 -6 -97 44 -65 76 18 18 42 15 72
-9z m111 -558 c50 -36 114 -82 143 -100 l52 -33 0 -252 c0 -138 -5 -290 -11
-336 -6 -47 -12 -225 -13 -396 0 -205 -4 -310 -11 -306 -5 3 -44 33 -85 67
-41 33 -116 88 -165 122 -50 34 -125 92 -168 128 l-77 66 0 55 c0 30 2 54 3
54 2 0 51 -25 108 -55 104 -55 133 -64 144 -45 3 5 -45 34 -107 64 -119 58
-157 81 -147 90 3 4 64 -23 134 -59 71 -37 135 -63 143 -60 23 9 9 18 -133 91
-130 66 -159 84 -138 84 18 0 153 -59 219 -96 33 -19 68 -34 77 -34 29 0 18
26 -16 38 -18 6 -42 18 -52 27 -18 13 -17 14 15 5 19 -6 48 -8 63 -4 52 11 55
35 51 386 -1 175 -6 323 -9 328 -4 6 -38 26 -76 45 -38 19 -113 59 -167 89
-73 41 -104 53 -124 49 l-28 -5 0 80 c0 44 -3 94 -6 111 l-6 31 148 -81 c82
-44 190 -111 239 -148z m1845 217 c0 -7 -4 -40 -10 -73 -5 -33 -21 -170 -35
-304 -14 -135 -32 -274 -39 -310 -14 -67 -36 -355 -36 -468 l0 -62 -77 -29
c-127 -48 -319 -109 -468 -147 -77 -20 -219 -59 -315 -87 -96 -28 -234 -65
-306 -83 -72 -18 -175 -49 -229 -69 -54 -20 -100 -34 -104 -31 -19 20 -15 435
9 795 5 85 10 236 10 337 l0 181 108 36 c369 122 840 234 1247 295 221 34 245
35 245 19z m63 -190 c8 -12 5 -42 -11 -111 -12 -53 -22 -123 -22 -157 0 -74
-26 -194 -46 -211 -17 -14 -18 -24 5 161 11 85 22 197 26 248 6 76 10 92 23
90 8 -2 20 -10 25 -20z m-2097 -137 l146 -79 -30 -21 -30 -21 -158 75 c-88 41
-163 77 -169 79 -24 9 30 37 87 45 5 1 74 -34 154 -78z m-131 -54 c186 -82
203 -93 215 -134 12 -42 40 -373 40 -472 l0 -63 -27 7 c-50 11 -287 126 -311
149 -27 26 -42 105 -42 224 0 45 -5 126 -11 179 -12 114 -6 168 19 160 9 -3
62 -25 117 -50z m304 -376 c1 -156 -1 -282 -4 -279 -3 3 -12 99 -20 214 -8
115 -20 240 -26 278 -11 68 -11 70 12 89 22 18 23 18 30 0 4 -10 8 -146 8
-302z m-1057 9 c58 -45 88 -184 55 -250 -17 -35 -75 -39 -124 -9 -47 29 -93
103 -93 148 0 101 94 165 162 111z m-631 -56 c-54 -62 -68 -124 -47 -223 20
-96 58 -163 136 -242 106 -107 264 -171 349 -141 47 16 37 6 -21 -25 -42 -21
-71 -27 -140 -31 l-88 -4 0 26 c0 23 -8 31 -57 54 -39 17 -80 28 -125 30 -64
4 -68 3 -68 -17 0 -29 -13 -26 -54 9 -46 41 -79 99 -106 189 -20 64 -22 88
-17 190 6 128 18 175 51 193 21 12 144 34 199 37 l29 1 -41 -46z m167 5 c2
-20 -7 -34 -42 -62 -53 -44 -71 -89 -63 -159 7 -56 45 -145 84 -196 65 -86
266 -111 331 -41 l28 30 24 -26 c23 -25 23 -25 4 -41 -111 -89 -160 -95 -281
-34 -100 50 -180 131 -226 227 -26 57 -32 80 -32 140 0 82 13 106 85 161 51
39 84 39 88 1z m282 5 c-16 -40 -12 -102 9 -143 20 -38 93 -111 111 -111 6 0
10 -4 10 -8 0 -4 -33 -14 -72 -21 -40 -7 -131 -33 -203 -57 -119 -39 -131 -42
-142 -27 -29 37 -28 37 224 115 35 10 48 22 39 37 -4 6 -22 4 -44 -4 -125 -44
-245 -76 -253 -68 -5 5 -12 29 -15 54 l-6 46 63 26 c35 15 97 37 138 50 74 22
106 47 59 46 -19 0 -146 -40 -233 -73 -27 -10 52 62 90 82 22 11 171 64 232
81 1 1 -2 -11 -7 -25z m-715 -404 c10 -30 26 -72 37 -93 24 -49 15 -61 -17
-22 -47 57 -79 135 -83 204 -4 54 -2 67 14 78 18 13 19 10 25 -49 3 -35 14
-88 24 -118z m-70 -58 c19 -36 32 -68 30 -71 -14 -13 -67 58 -81 108 -9 31
-21 67 -27 80 -10 19 -8 25 8 37 19 14 20 12 28 -37 4 -29 23 -81 42 -117z
m-96 16 c6 -17 8 -35 4 -39 -8 -7 -317 -123 -483 -181 -47 -16 -144 -52 -217
-79 -72 -27 -133 -49 -136 -49 -2 0 -4 6 -4 13 0 6 -4 19 -7 28 -9 21 142 91
329 153 78 25 215 77 305 115 91 38 172 70 182 70 9 1 20 -12 27 -31z m851 2
c-18 -12 -127 -12 -155 0 -13 6 13 9 75 9 65 1 90 -2 80 -9z m2735 -195 c31
-25 50 -47 44 -51 -43 -26 -316 -119 -414 -140 -141 -30 -207 -50 -331 -98
-50 -19 -136 -45 -190 -56 -60 -13 -131 -37 -179 -60 -71 -35 -296 -110 -328
-110 -14 0 -271 166 -330 213 -29 22 -35 32 -25 38 18 12 88 11 88 -1 0 -5 15
-17 33 -26 17 -9 69 -41 114 -70 44 -30 84 -54 87 -54 3 0 6 7 6 15 0 14 -171
135 -191 135 -5 0 -9 4 -9 9 0 5 22 11 49 15 53 7 54 6 248 -134 46 -33 63
-37 63 -16 0 7 -48 47 -107 87 -69 48 -101 75 -90 77 19 4 99 -38 189 -99 59
-41 90 -51 97 -34 3 6 -46 41 -107 79 -61 38 -109 73 -106 78 3 5 22 -4 42
-20 61 -48 101 -65 141 -58 39 6 96 -20 107 -49 4 -8 12 -15 20 -15 25 0 15
27 -20 58 -19 17 -32 33 -29 36 14 14 36 4 77 -34 42 -39 66 -50 66 -30 0 6
-18 27 -40 47 -30 27 -38 38 -28 44 22 15 32 10 97 -42 48 -38 66 -48 75 -39
8 9 3 19 -23 40 l-33 28 37 -8 c20 -5 48 -19 61 -31 17 -16 27 -20 35 -12 8 8
5 17 -9 31 -11 11 -18 23 -14 26 13 13 65 5 90 -14 18 -15 28 -18 36 -10 8 8
6 15 -8 25 -18 14 -18 15 9 25 24 9 32 7 50 -10 26 -24 42 -12 26 19 -8 14 -7
22 5 32 14 11 22 10 55 -9 45 -26 49 -27 49 -7 0 9 -15 25 -34 36 -22 13 -33
26 -29 34 7 19 28 8 72 -39 33 -34 61 -47 61 -28 0 4 -18 26 -40 47 -22 21
-40 43 -40 47 0 20 37 5 76 -32 41 -38 74 -51 74 -31 0 5 -18 25 -40 44 -46
39 -48 44 -17 49 15 2 42 -12 82 -44 40 -32 63 -44 69 -38 7 7 -5 24 -37 52
-36 30 -45 43 -35 49 20 13 22 12 76 -36 61 -55 83 -42 27 15 -37 37 -37 38
-14 45 19 6 31 -1 72 -44 26 -28 53 -51 58 -51 20 0 7 26 -33 67 -36 37 -39
43 -21 43 11 0 38 -18 59 -40 39 -40 64 -51 64 -28 0 7 -17 29 -37 50 -53 54
-16 51 43 -4 35 -33 47 -39 57 -29 9 10 3 21 -33 52 -62 54 -32 49 35 -6z
m-3050 5 l40 -17 -3 -51 c-4 -50 -4 -50 -35 -47 -18 3 -58 7 -89 10 -65 7 -67
11 -47 91 l12 45 40 -7 c23 -3 59 -14 82 -24z m3155 -15 c7 -8 9 -15 6 -15 -4
0 -14 7 -22 15 -9 8 -11 15 -6 15 5 0 15 -7 22 -15z m162 -8 c9 -14 11 -138 2
-161 -5 -12 -20 -16 -59 -16 l-53 0 9 36 c11 39 -3 127 -24 152 -10 13 -4 14
52 9 36 -4 68 -13 73 -20z m154 -14 c24 -9 13 -112 -15 -152 -19 -26 -25 -29
-64 -24 -23 3 -43 6 -44 7 -1 1 2 19 8 41 5 22 6 64 3 94 l-7 54 52 -7 c28 -4
59 -10 67 -13z m-286 -80 c0 -55 -7 -83 -21 -83 -11 0 -12 48 -3 114 9 61 24
41 24 -31z m415 51 l65 -16 0 -37 c0 -20 -11 -59 -24 -87 l-24 -52 -69 16
c-37 9 -69 16 -70 17 -2 1 6 19 17 40 12 23 20 59 20 87 0 27 5 48 10 48 6 0
40 -7 75 -16z m-500 -204 c-7 -102 -16 -233 -20 -291 l-7 -105 -51 -11 c-41
-8 -58 -8 -79 3 -15 8 -45 14 -67 14 l-39 0 5 111 6 111 -24 -7 c-13 -4 -129
-45 -258 -92 -209 -75 -406 -133 -452 -133 -9 0 -20 11 -23 24 -7 28 -70 86
-94 86 -9 0 -26 7 -36 15 -31 24 -117 19 -157 -8 -37 -25 -51 -57 -25 -57 9 0
16 4 16 8 0 16 60 42 98 42 48 0 56 -9 41 -44 -9 -20 -9 -32 -1 -51 23 -50 93
-18 79 36 -7 27 8 24 32 -7 30 -38 26 -52 -16 -59 -65 -11 -107 -27 -131 -49
-23 -20 -24 -26 -18 -111 3 -49 9 -165 12 -257 l6 -168 -37 0 c-27 0 -44 -8
-66 -29 -16 -16 -29 -36 -29 -44 0 -9 -15 -20 -33 -26 -49 -17 -88 -61 -94
-110 -4 -25 -1 -46 7 -56 18 -21 30 -9 24 24 -7 33 17 85 45 101 28 14 51 12
51 -4 0 -19 47 -56 71 -56 23 0 42 34 34 61 -4 11 -22 27 -41 36 -40 19 -41
26 -13 54 14 14 30 19 52 17 30 -3 32 -5 34 -48 5 -100 26 -309 33 -319 4 -8
17 -7 41 3 19 8 134 49 254 91 121 42 269 96 329 121 60 25 132 50 159 56 29
6 59 20 72 34 l22 24 20 -23 c30 -33 43 -62 43 -97 0 -44 -16 -69 -56 -86 -42
-17 -44 -34 -5 -34 45 0 91 58 91 116 0 53 -28 112 -70 147 l-30 26 0 133 c0
135 24 440 36 460 6 10 80 6 91 -6 3 -3 -2 -21 -11 -41 -20 -41 -10 -70 29
-85 62 -24 92 25 61 101 -5 12 0 18 20 23 15 4 30 3 35 -1 4 -4 1 -62 -6 -128
-8 -66 -15 -151 -15 -190 0 -38 -7 -115 -15 -169 -8 -55 -15 -157 -15 -228 0
-94 -3 -130 -12 -133 -7 -2 -62 -23 -123 -46 -60 -23 -173 -59 -250 -81 -102
-29 -163 -53 -225 -88 -121 -69 -522 -231 -773 -313 l-109 -35 6 37 c8 53 27
386 30 536 1 72 10 173 19 225 17 101 42 369 57 615 5 83 10 151 10 151 0 1
17 5 38 9 71 13 257 77 308 106 31 18 96 39 162 54 61 13 159 43 219 66 133
51 166 60 321 94 105 22 276 80 387 129 17 8 31 13 31 12 1 0 -4 -84 -11 -186z
m666 149 c27 -12 49 -25 49 -30 0 -5 -13 -27 -29 -49 -15 -21 -34 -52 -40 -68
l-12 -29 -43 15 -42 15 19 39 c11 21 22 59 25 83 2 25 9 45 14 45 5 0 32 -10
59 -21z m-1351 -4 c0 -13 -96 -45 -181 -60 -97 -16 -131 -14 -58 5 24 6 80 21
124 34 82 24 115 30 115 21z m-3825 -15 c10 -17 -15 -40 -43 -40 l-25 0 23 25
c26 27 35 30 45 15z m1408 -9 c32 -7 32 -7 32 -66 l0 -60 -53 -11 c-57 -13
-119 -4 -133 18 -11 16 -11 31 -3 92 l7 47 59 -7 c32 -4 73 -10 91 -13z m3908
-48 l40 -26 -28 -12 c-29 -12 -93 -78 -93 -96 0 -5 -13 -3 -30 6 -16 9 -30 19
-30 24 0 15 80 131 90 131 6 0 29 -12 51 -27z m-1811 -24 c0 -6 -4 -7 -10 -4
-5 3 -10 11 -10 16 0 6 5 7 10 4 6 -3 10 -11 10 -16z m1938 -76 c23 -19 42
-38 42 -42 0 -4 -15 -13 -34 -19 -19 -7 -51 -24 -71 -37 l-36 -25 -40 32 c-21
17 -39 35 -39 40 0 22 38 63 74 79 44 20 44 20 104 -28z m-3948 -144 c0 -10
-158 -51 -183 -47 -25 3 -42 45 -53 126 l-6 50 39 -11 c30 -8 53 -7 99 4 l59
15 22 -65 c12 -37 22 -69 23 -72z m1248 88 c54 -41 145 -102 240 -161 38 -24
43 -31 38 -52 -4 -14 -9 -76 -11 -137 -3 -62 -9 -167 -15 -233 -6 -65 -15
-173 -20 -239 -5 -66 -14 -138 -21 -160 -6 -22 -17 -191 -24 -375 -13 -328
-20 -390 -42 -397 -6 -2 -34 16 -61 40 -27 25 -72 53 -98 62 -84 31 -78 -5
-70 425 3 212 9 404 12 428 l6 42 49 0 c27 0 49 5 49 10 0 12 -10 16 -62 25
-32 5 -38 10 -38 31 0 24 2 25 33 18 84 -20 106 3 25 26 -34 10 -54 22 -56 33
-4 20 5 21 80 3 38 -9 60 -11 64 -4 9 15 -5 23 -66 37 -116 28 -80 38 53 15
30 -5 37 -4 37 9 0 16 -16 21 -114 35 -27 4 -48 12 -47 17 2 12 52 12 134 0
49 -7 57 -6 57 9 0 11 -9 16 -27 17 -16 0 -46 7 -68 14 -40 14 -39 14 31 9 47
-4 74 -2 78 5 8 12 -1 16 -57 26 -52 8 -36 25 24 25 54 0 65 19 18 30 l-24 6
23 12 c64 35 -28 199 -154 274 -49 30 -54 36 -54 69 0 32 6 49 17 49 3 0 30
-19 61 -43z m2796 -45 c16 -18 14 -19 -41 -20 -32 0 -75 -8 -96 -17 -53 -22
-37 -1 21 30 57 29 93 31 116 7z m-2771 -126 c34 -40 77 -110 77 -126 0 -9
-19 -30 -42 -48 l-42 -32 -19 51 c-14 36 -39 71 -83 115 l-64 64 38 24 37 23
40 -25 c22 -13 48 -34 58 -46z m2766 55 c10 -6 3 -12 -25 -21 -154 -49 -182
-212 -49 -287 75 -42 206 -24 259 36 11 12 27 51 36 87 9 36 21 65 26 66 15 2
44 -57 50 -103 11 -93 -62 -148 -196 -149 -136 0 -179 -24 -251 -138 -23 -37
-77 -103 -118 -148 -42 -44 -100 -109 -130 -145 -29 -35 -80 -83 -112 -107
-33 -25 -59 -52 -59 -62 0 -9 11 -34 25 -54 31 -46 31 -62 0 -109 -33 -47 -59
-53 -118 -27 -39 17 -48 26 -45 43 2 15 11 23 29 25 46 5 74 48 70 105 -3 55
-127 101 -195 73 -42 -18 -60 -53 -46 -92 6 -14 10 -30 10 -35 0 -16 -26 -10
-54 12 -32 26 -35 73 -6 129 29 57 57 72 117 64 l49 -6 69 69 c49 49 85 75
120 88 54 21 66 31 58 52 -3 7 14 39 38 71 47 62 220 238 263 265 33 22 33 37
1 67 -79 74 -38 182 84 226 42 15 80 17 100 5z m-3949 -97 c1 -28 -133 -114
-179 -114 -21 0 -46 30 -80 97 -27 55 -27 63 7 64 15 0 61 10 102 23 l75 22
37 -40 c20 -23 37 -46 38 -52z m2640 57 c0 -69 -6 -75 -108 -109 -54 -17 -108
-34 -122 -38 -14 -3 -74 -27 -135 -51 -84 -35 -298 -93 -340 -93 -3 0 -5 23
-5 50 0 42 3 50 19 50 48 0 275 67 456 135 110 41 208 74 218 75 10 0 17 -7
17 -19z m1388 -16 c7 -14 12 -27 12 -29 0 -2 -30 -6 -67 -8 -38 -3 -76 -8 -85
-13 -11 -4 -18 -3 -18 3 0 6 27 21 60 33 33 12 63 26 66 30 9 16 20 10 32 -16z
m-3007 -31 c48 -33 108 -119 115 -166 6 -32 3 -38 -22 -54 -16 -10 -42 -28
-57 -41 -35 -28 -47 -29 -47 -3 0 41 -43 131 -86 179 l-45 50 43 30 c24 16 47
30 52 31 6 0 27 -12 47 -26z m-891 -118 c0 -48 -102 -146 -153 -146 -21 0 -67
29 -114 73 l-31 29 77 39 c42 21 87 49 100 63 l23 25 49 -32 c29 -19 49 -39
49 -51z m3917 76 c6 -4 15 -31 19 -59 l6 -52 -33 9 c-19 6 -57 10 -86 10 -57
0 -58 1 -67 46 -6 25 -3 32 16 42 26 12 127 15 145 4z m-2244 -39 c-3 -9 -9
-11 -15 -5 -5 5 -6 17 -2 26 5 13 9 14 14 5 5 -7 6 -19 3 -26z m-881 -50 c39
-57 60 -121 52 -156 -5 -23 -17 -34 -58 -52 -100 -44 -96 -45 -96 25 0 66 -17
115 -56 167 l-24 32 27 15 c16 8 41 21 58 30 27 14 31 14 48 -2 11 -9 32 -36
49 -59z m1696 16 c-21 -13 -28 -11 -28 11 0 10 8 23 18 29 14 8 18 6 20 -11 2
-11 -2 -25 -10 -29z m-2350 -54 c5 -23 -65 -165 -85 -172 -17 -7 -149 33 -158
47 -3 4 10 18 29 30 47 28 96 86 102 120 l6 28 52 -17 c32 -11 52 -24 54 -36z
m2179 39 c-3 -3 -12 -4 -19 -1 -8 3 -5 6 6 6 11 1 17 -2 13 -5z m-1704 -41
c37 -53 47 -86 47 -148 0 -65 -10 -73 -104 -82 l-63 -6 10 62 c7 45 7 77 -2
116 -16 70 -16 68 22 82 51 18 63 15 90 -24z m1157 -25 c0 -55 -7 -64 -59 -83
-66 -23 -99 -20 -107 10 -17 67 21 94 159 114 4 1 7 -18 7 -41z m716 -35 c-3
-43 -9 -171 -12 -285 -4 -115 -10 -208 -13 -208 -37 1 -38 36 -11 400 11 157
13 170 31 170 8 0 10 -22 5 -77z m-2228 61 l52 -7 -1 -61 c0 -42 -7 -75 -22
-106 -21 -41 -26 -45 -57 -43 -19 1 -61 7 -93 14 -52 11 -56 13 -43 28 20 22
76 142 76 164 0 19 9 20 88 11z m201 -25 c14 -40 14 -174 1 -199 -9 -17 -18
-18 -83 -13 -39 3 -73 7 -75 8 -1 1 7 23 19 49 13 31 21 70 21 111 l1 64 46 4
c25 2 49 4 53 5 3 1 11 -12 17 -29z m1821 6 c0 -28 -3 -29 -31 -15 -28 15 -24
40 6 40 20 0 25 -5 25 -25z m90 10 c0 -14 -29 -35 -49 -35 -12 0 -15 33 -4 43
13 13 53 7 53 -8z m1519 9 c42 -9 39 -20 -6 -27 -46 -7 -105 4 -111 21 -4 13
62 17 117 6z m-1199 -56 c0 -13 -8 -18 -25 -18 -19 0 -25 5 -25 23 0 35 21 52
37 30 7 -9 13 -25 13 -35z m-520 32 c0 -5 -4 -10 -10 -10 -5 0 -10 5 -10 10 0
6 5 10 10 10 6 0 10 -4 10 -10z m-50 -25 c0 -8 -4 -15 -10 -15 -5 0 -7 7 -4
15 4 8 8 15 10 15 2 0 4 -7 4 -15z m85 5 c3 -5 -1 -10 -9 -10 -9 0 -16 5 -16
10 0 6 4 10 9 10 6 0 13 -4 16 -10z m-165 -20 c0 -5 -5 -10 -11 -10 -5 0 -7 5
-4 10 3 6 8 10 11 10 2 0 4 -4 4 -10z m118 -1 c-2 -6 -8 -10 -13 -10 -5 0 -11
4 -13 10 -2 6 4 11 13 11 9 0 15 -5 13 -11z m-87 -22 c-13 -13 -26 -3 -16 12
3 6 11 8 17 5 6 -4 6 -10 -1 -17z m119 2 c0 -5 -4 -9 -10 -9 -5 0 -10 7 -10
16 0 8 5 12 10 9 6 -3 10 -10 10 -16z m-195 1 c3 -5 1 -10 -4 -10 -6 0 -11 5
-11 10 0 6 2 10 4 10 3 0 8 -4 11 -10z m-45 -15 c0 -18 -5 -18 -31 -4 -32 17
-72 -14 -67 -51 3 -22 0 -30 -16 -34 -25 -6 -23 -9 -28 39 -3 40 -3 40 42 52
65 17 100 16 100 -2z m75 6 c3 -5 1 -12 -5 -16 -5 -3 -10 1 -10 9 0 18 6 21
15 7z m79 -6 c-4 -8 -8 -15 -10 -15 -2 0 -4 7 -4 15 0 8 4 15 10 15 5 0 7 -7
4 -15z m316 0 c0 -9 -6 -12 -15 -9 -8 4 -12 10 -9 15 8 14 24 10 24 -6z m-280
-5 c0 -5 -4 -10 -10 -10 -5 0 -10 5 -10 10 0 6 5 10 10 10 6 0 10 -4 10 -10z
m1329 1 c23 -6 21 -9 -36 -59 -34 -28 -70 -52 -82 -52 -68 0 -108 -59 -86
-124 12 -33 11 -38 -3 -43 -10 -4 -41 -21 -70 -40 -29 -18 -57 -33 -62 -33
-18 0 -11 142 9 186 53 116 215 197 330 165z m-1209 -11 c0 -5 -4 -10 -10 -10
-5 0 -10 5 -10 10 0 6 5 10 10 10 6 0 10 -4 10 -10z m-273 -22 c-3 -8 -6 -5
-6 6 -1 11 2 17 5 13 3 -3 4 -12 1 -19z m323 6 c0 -3 -5 -14 -11 -25 -7 -14
-7 -30 3 -57 16 -49 27 -62 49 -62 25 0 24 -20 -1 -27 -11 -3 -27 -19 -35 -37
-8 -17 -29 -39 -45 -48 -18 -10 -30 -25 -30 -38 0 -26 -26 -26 -33 0 -3 11
-16 24 -30 29 -13 5 -27 19 -30 30 l-5 21 25 -20 c34 -27 76 -25 110 4 24 21
28 31 27 75 -1 87 -48 128 -115 100 -36 -14 -59 -55 -59 -102 0 -26 -5 -36
-20 -40 -23 -6 -38 12 -20 23 26 16 51 120 30 120 -5 0 -10 7 -10 16 0 12 6
15 23 9 12 -3 27 -6 32 -5 74 7 106 14 116 26 11 14 29 19 29 8z m100 2 c0
-11 -19 -15 -25 -6 -3 5 1 10 9 10 9 0 16 -2 16 -4z m-491 -15 c7 -5 10 -14 7
-20 -8 -13 -46 3 -46 19 0 12 20 13 39 1z m98 -13 c-3 -8 -6 -5 -6 6 -1 11 2
17 5 13 3 -3 4 -12 1 -19z m-312 2 c-3 -5 -11 -10 -16 -10 -6 0 -7 5 -4 10 3
6 11 10 16 10 6 0 7 -4 4 -10z m35 -11 c0 -11 -4 -17 -10 -14 -5 3 -10 13 -10
21 0 8 5 14 10 14 6 0 10 -9 10 -21z m340 11 c0 -5 -4 -10 -10 -10 -5 0 -10 5
-10 10 0 6 5 10 10 10 6 0 10 -4 10 -10z m-430 -20 c0 -5 -6 -10 -14 -10 -8 0
-18 5 -21 10 -3 6 3 10 14 10 12 0 21 -4 21 -10z m130 -11 c0 -11 -4 -18 -10
-14 -5 3 -7 12 -3 20 7 21 13 19 13 -6z m637 -5 c-9 -9 -28 6 -21 18 4 6 10 6
17 -1 6 -6 8 -13 4 -17z m1487 11 c-7 -18 -14 -18 -38 0 -19 14 -18 15 12 15
24 0 30 -4 26 -15z m-2214 -15 c0 -13 -5 -18 -15 -14 -8 4 -15 12 -15 20 0 8
7 14 15 14 8 0 15 -9 15 -20z m280 10 c0 -5 -7 -10 -16 -10 -8 0 -12 5 -9 10
3 6 10 10 16 10 5 0 9 -4 9 -10z m390 -5 c0 -8 -4 -15 -10 -15 -5 0 -7 7 -4
15 4 8 8 15 10 15 2 0 4 -7 4 -15z m1479 -9 c19 -20 21 -28 12 -45 -16 -28
-21 -27 -53 13 -20 25 -24 36 -15 45 17 17 31 14 56 -13z m-2105 -4 c9 -14 -9
-31 -23 -23 -7 5 -10 14 -7 20 8 13 23 14 30 3z m293 -14 c-3 -8 -6 -5 -6 6
-1 11 2 17 5 13 3 -3 4 -12 1 -19z m67 0 c-3 -5 -10 -22 -14 -36 -7 -23 -8
-21 -7 14 1 28 6 40 14 37 7 -3 10 -9 7 -15z m292 -5 c-10 -10 -19 5 -10 18 6
11 8 11 12 0 2 -7 1 -15 -2 -18z m-746 10 c0 -5 -5 -15 -10 -23 -8 -12 -10
-11 -10 8 0 12 5 22 10 22 6 0 10 -3 10 -7z m630 -38 c26 -78 -37 -138 -90
-85 -27 27 -26 75 3 104 34 34 73 25 87 -19z m-590 4 c0 -12 -5 -16 -15 -13
-8 4 -15 15 -15 25 0 12 5 16 15 13 8 -4 15 -15 15 -25z m95 13 c0 -18 -20
-15 -23 4 -3 10 1 15 10 12 7 -3 13 -10 13 -16z m89 3 c-4 -8 -10 -12 -15 -9
-11 6 -2 24 11 24 5 0 7 -7 4 -15z m126 -5 c0 -5 -4 -10 -10 -10 -5 0 -10 5
-10 10 0 6 5 10 10 10 6 0 10 -4 10 -10z m-170 -21 c0 -5 -7 -9 -15 -9 -15 0
-20 12 -9 23 8 8 24 -1 24 -14z m200 5 c0 -8 -5 -12 -10 -9 -6 4 -8 11 -5 16
9 14 15 11 15 -7z m1785 -92 c20 -61 20 -204 -1 -266 -19 -55 -91 -133 -149
-161 -85 -41 -289 -29 -335 20 -13 14 -21 27 -18 30 3 3 32 25 64 49 l58 44
29 -20 c16 -11 49 -23 73 -26 39 -4 47 -1 78 30 21 21 40 54 50 88 20 66 20
86 2 137 -14 40 -14 40 32 112 l47 71 27 -32 c15 -17 34 -52 43 -76z m-2083
83 c0 -5 -5 -11 -11 -13 -6 -2 -11 4 -11 13 0 9 5 15 11 13 6 -2 11 -8 11 -13z
m-95 -17 c-3 -8 -6 -5 -6 6 -1 11 2 17 5 13 3 -3 4 -12 1 -19z m143 1 c0 -5
-7 -9 -15 -9 -8 0 -15 7 -15 15 0 9 6 12 15 9 8 -4 15 -10 15 -15z m80 12 c0
-6 -4 -13 -10 -16 -5 -3 -10 1 -10 9 0 9 5 16 10 16 6 0 10 -4 10 -9z m55 -11
c-3 -5 -10 -10 -16 -10 -5 0 -9 5 -9 10 0 6 7 10 16 10 8 0 12 -4 9 -10z m502
-12 c-3 -8 -6 -5 -6 6 -1 11 2 17 5 13 3 -3 4 -12 1 -19z m-732 1 c4 -6 5 -12
2 -15 -7 -7 -37 7 -37 17 0 13 27 11 35 -2z m135 -10 c0 -5 -7 -9 -15 -9 -8 0
-15 7 -15 15 0 9 6 12 15 9 8 -4 15 -10 15 -15z m139 -17 c-11 -17 -9 -25 17
-55 17 -21 39 -36 52 -36 30 -1 28 -25 -3 -39 -16 -8 -25 -20 -25 -35 0 -26
-26 -67 -42 -67 -6 0 -4 8 5 18 26 28 21 85 -9 121 -54 64 -149 26 -149 -59 0
-54 35 -90 87 -90 37 0 39 -2 36 -27 -4 -35 -48 -48 -48 -14 0 16 -6 21 -25
21 -15 0 -31 10 -41 26 -14 20 -24 25 -45 22 -35 -5 -49 20 -22 40 10 7 19 25
20 40 1 15 5 40 9 56 5 22 3 32 -10 42 -12 8 -14 14 -6 19 6 4 18 1 26 -6 13
-10 21 -9 46 5 20 13 41 17 64 13 30 -5 36 -2 46 19 7 15 15 21 21 15 5 -5 4
-17 -4 -29z m58 16 c-3 -8 -6 -5 -6 6 -1 11 2 17 5 13 3 -3 4 -12 1 -19z
m-347 -38 c0 -11 -4 -20 -10 -20 -5 0 -10 9 -10 20 0 11 5 20 10 20 6 0 10 -9
10 -20z m350 -1 c0 -6 -4 -7 -10 -4 -5 3 -10 11 -10 16 0 6 5 7 10 4 6 -3 10
-11 10 -16z m368 -17 c2 -7 -2 -10 -12 -6 -9 3 -16 11 -16 16 0 13 23 5 28
-10z m-652 -63 c-16 -37 -20 -30 -10 20 4 19 10 29 16 23 5 -5 2 -23 -6 -43z
m-66 27 c0 -17 -14 -29 -23 -20 -8 8 3 34 14 34 5 0 9 -6 9 -14z m710 10 c0
-3 -4 -8 -10 -11 -5 -3 -10 -1 -10 4 0 6 5 11 10 11 6 0 10 -2 10 -4z m-693
-28 c-3 -8 -6 -5 -6 6 -1 11 2 17 5 13 3 -3 4 -12 1 -19z m723 -3 c0 -8 -6
-12 -14 -9 -8 3 -12 12 -9 20 6 17 23 9 23 -11z m-88 -7 c-7 -7 -12 -8 -12 -2
0 14 12 26 19 19 2 -3 -1 -11 -7 -17z m-394 0 c20 -20 14 -30 -10 -17 -18 10
-24 8 -40 -11 -23 -28 -9 -57 29 -62 24 -4 26 -5 9 -13 -25 -11 -67 5 -76 30
-5 12 -2 34 6 53 10 25 19 32 42 32 15 0 33 -5 40 -12z m172 3 c0 -6 -4 -13
-10 -16 -5 -3 -10 1 -10 9 0 9 5 16 10 16 6 0 10 -4 10 -9z m260 -11 c0 -5 -4
-10 -10 -10 -5 0 -10 5 -10 10 0 6 5 10 10 10 6 0 10 -4 10 -10z m-700 -16 c0
-8 -4 -12 -10 -9 -5 3 -10 10 -10 16 0 5 5 9 10 9 6 0 10 -7 10 -16z m525 5
c11 -17 -1 -21 -15 -4 -8 9 -8 15 -2 15 6 0 14 -5 17 -11z m122 -21 c-3 -8 -6
-5 -6 6 -1 11 2 17 5 13 3 -3 4 -12 1 -19z m101 4 c3 -9 -2 -13 -14 -10 -9 1
-19 9 -22 16 -3 9 2 13 14 10 9 -1 19 -9 22 -16z m-328 -12 c0 -5 -5 -10 -11
-10 -5 0 -7 5 -4 10 3 6 8 10 11 10 2 0 4 -4 4 -10z m40 -16 c0 -14 -12 -19
-23 -8 -9 9 4 35 14 28 5 -3 9 -12 9 -20z m1510 22 c0 -2 -16 -6 -35 -8 -19
-2 -35 0 -35 4 0 4 16 8 35 8 19 0 35 -2 35 -4z m-1978 -41 c-12 -22 -27 -2
-18 22 5 12 10 13 17 6 7 -7 8 -17 1 -28z m751 0 c-3 -10 -9 -9 -24 6 -25 25
-24 31 5 18 14 -7 22 -17 19 -24z m-246 -1 c-9 -9 -28 6 -21 18 4 6 10 6 17
-1 6 -6 8 -13 4 -17z m-92 6 c3 -6 -1 -13 -10 -16 -19 -8 -30 0 -20 15 8 14
22 14 30 1z m1565 -10 c0 -5 -3 -10 -7 -10 -5 0 -18 -3 -30 -6 -17 -5 -23 -2
-23 10 0 11 9 16 30 16 17 0 30 -4 30 -10z m-1340 -4 c0 -2 -11 -6 -25 -8 -14
-3 -25 -1 -25 3 0 5 11 9 25 9 14 0 25 -2 25 -4z m70 -44 c0 -25 -6 -31 -39
-40 -51 -16 -51 -16 -51 17 0 25 5 29 43 38 23 6 43 11 45 12 1 0 2 -12 2 -27z
m1156 -16 c-8 -43 -16 -48 -40 -30 -19 14 -19 15 9 44 16 16 31 28 33 25 2 -2
1 -20 -2 -39z m-1832 -5 c-7 -8 -35 9 -29 19 4 6 11 5 20 -3 7 -6 11 -14 9
-16z m551 -11 c0 -25 -5 -36 -17 -38 -15 -3 -18 4 -18 38 0 34 3 41 18 38 12
-2 17 -13 17 -38z m-440 10 c10 -11 16 -20 13 -20 -3 0 -13 9 -23 20 -10 11
-16 20 -13 20 3 0 13 -9 23 -20z m220 10 c3 -5 1 -10 -4 -10 -6 0 -11 5 -11
10 0 6 2 10 4 10 3 0 8 -4 11 -10z m1595 0 c0 -5 -9 -10 -20 -10 -11 0 -20 5
-20 10 0 6 9 10 20 10 11 0 20 -4 20 -10z m-1885 -18 c0 -18 -20 -15 -23 4 -3
10 1 15 10 12 7 -3 13 -10 13 -16z m35 -17 c10 -12 10 -15 -4 -15 -9 0 -16 7
-16 15 0 8 2 15 4 15 2 0 9 -7 16 -15z m284 0 c-10 -8 -23 -15 -28 -15 -6 0
-1 7 10 15 10 8 23 15 28 15 6 0 1 -7 -10 -15z m395 -14 l24 -19 -52 -11 c-28
-6 -102 -32 -164 -57 -62 -26 -175 -68 -252 -94 -77 -27 -184 -64 -237 -84
l-98 -35 0 33 c0 32 2 34 65 55 36 11 75 21 86 21 27 0 263 81 318 110 34 17
259 96 281 99 3 0 16 -8 29 -18z m-459 -11 c0 -11 -7 -20 -15 -20 -13 0 -13 3
-3 20 7 11 14 20 15 20 2 0 3 -9 3 -20z m1595 10 c-3 -5 -11 -10 -16 -10 -6 0
-7 5 -4 10 3 6 11 10 16 10 6 0 7 -4 4 -10z m-1855 -10 c0 -5 -7 -10 -15 -10
-8 0 -15 5 -15 10 0 6 7 10 15 10 8 0 15 -4 15 -10z m370 0 c0 -5 -2 -10 -4
-10 -3 0 -8 5 -11 10 -3 6 -1 10 4 10 6 0 11 -4 11 -10z m-335 -10 c3 -5 1
-10 -4 -10 -6 0 -11 5 -11 10 0 6 2 10 4 10 3 0 8 -4 11 -10z m385 0 c0 -5 -7
-10 -15 -10 -8 0 -15 5 -15 10 0 6 7 10 15 10 8 0 15 -4 15 -10z m-481 -7 c0
-5 -4 -17 -9 -28 -8 -18 -9 -17 -9 8 -1 15 4 27 9 27 6 0 10 -3 9 -7z m411 -3
c8 -5 11 -12 8 -16 -10 -9 -38 3 -38 16 0 12 10 13 30 0z m-245 -20 c3 -6 -1
-7 -9 -4 -18 7 -21 14 -7 14 6 0 13 -4 16 -10z m93 -1 c-2 -6 -8 -10 -13 -10
-5 0 -11 4 -13 10 -2 6 4 11 13 11 9 0 15 -5 13 -11z m192 1 c0 -5 -5 -10 -11
-10 -5 0 -7 5 -4 10 3 6 8 10 11 10 2 0 4 -4 4 -10z m-565 -29 c10 -17 -13
-21 -29 -5 -23 22 -20 37 3 24 11 -5 22 -14 26 -19z m176 14 c-1 -15 -24 -12
-29 3 -3 9 2 13 12 10 10 -1 17 -7 17 -13z m289 0 c0 -9 -6 -12 -16 -8 -13 5
-13 7 -2 14 17 11 18 11 18 -6z m39 1 c9 -10 8 -15 -4 -20 -10 -4 -15 1 -15
14 0 24 4 25 19 6z m-186 -2 c9 -9 -4 -35 -14 -28 -5 3 -9 12 -9 20 0 14 12
19 23 8z m97 -8 c0 -11 -19 -15 -25 -6 -3 5 1 10 9 10 9 0 16 -2 16 -4z m-160
-14 c0 -4 -10 -9 -22 -9 -18 -2 -20 0 -8 7 18 12 30 13 30 2z m100 -12 c0 -11
-4 -20 -10 -20 -5 0 -10 9 -10 20 0 11 5 20 10 20 6 0 10 -9 10 -20z m100 4
c0 -2 -7 -4 -15 -4 -8 0 -15 4 -15 10 0 5 7 7 15 4 8 -4 15 -8 15 -10z m-300
-24 c0 -5 -5 -12 -11 -16 -14 -8 -33 11 -25 25 7 11 36 4 36 -9z m240 11 c0
-12 -20 -25 -27 -18 -7 7 6 27 18 27 5 0 9 -4 9 -9z m-90 -21 c0 -11 -7 -20
-15 -20 -15 0 -21 21 -8 33 12 13 23 7 23 -13z m-112 -14 c3 -12 -1 -17 -10
-14 -7 3 -15 13 -16 22 -3 12 1 17 10 14 7 -3 15 -13 16 -22z m52 -12 c0 -2
-7 -4 -15 -4 -8 0 -15 4 -15 10 0 5 7 7 15 4 8 -4 15 -8 15 -10z m-116 0 c12
-5 13 -10 5 -25 -14 -27 -29 -24 -29 6 0 27 1 28 24 19z m46 -18 c0 -3 -4 -8
-10 -11 -5 -3 -10 -1 -10 4 0 6 5 11 10 11 6 0 10 -2 10 -4z m1030 -115 c17
-34 12 -38 -58 -44 -164 -14 -294 -110 -319 -239 -6 -31 -18 -47 -35 -48 -4 0
-5 28 -2 63 4 43 1 75 -10 106 -9 24 -14 46 -12 48 2 2 34 13 72 23 38 11 121
40 184 65 128 49 164 55 180 26z m1301 -103 c22 -12 39 -25 39 -29 0 -4 -35
-15 -77 -24 -102 -22 -165 -42 -238 -77 -33 -15 -68 -28 -77 -28 -17 0 -87 40
-88 51 -1 15 267 103 370 122 14 2 27 5 29 6 2 0 21 -9 42 -21z m-1418 -9
c-57 -36 -131 -146 -152 -226 -19 -71 -61 -47 -61 34 0 78 67 150 178 194 62
24 74 23 35 -2z m82 -21 c-20 -17 -47 -52 -59 -77 -29 -58 -50 -160 -43 -206
l6 -35 -59 30 -58 29 9 43 c10 45 54 124 94 170 23 26 109 77 133 78 7 0 -3
-14 -23 -32z m157 12 c6 0 -12 -20 -40 -45 -79 -71 -123 -210 -93 -296 6 -18
10 -34 8 -36 -2 -1 -22 5 -45 15 -35 14 -44 24 -53 55 -21 76 31 234 91 277
30 21 89 40 108 34 8 -2 18 -4 24 -4z m-577 -51 c18 -54 15 -130 -6 -155 -7
-8 -31 -14 -60 -14 -42 0 -55 5 -84 33 -41 37 -61 90 -40 107 10 9 16 3 25
-25 19 -58 79 -84 114 -49 22 21 20 62 -4 102 -24 39 -24 39 -2 45 36 10 41 6
57 -44z m683 5 c34 -14 35 -17 18 -27 -78 -49 -109 -105 -140 -258 -4 -20 -14
-28 -38 -33 -18 -3 -36 -2 -42 4 -6 6 -11 43 -11 83 0 92 37 174 98 218 46 33
63 35 115 13z m-769 -20 c25 -31 27 -62 6 -70 -32 -13 -76 55 -54 82 16 20 25
18 48 -12z m1910 -1 c-57 -147 -130 -363 -144 -424 -9 -42 -24 -88 -33 -103
-18 -29 -85 -59 -177 -78 -27 -6 -88 -21 -135 -34 -46 -12 -86 -21 -88 -20 -1
2 6 26 17 54 11 28 27 95 36 149 19 116 93 343 115 350 8 3 49 20 90 39 41 18
107 41 145 50 39 9 90 22 115 29 69 20 71 19 59 -12z m-992 -47 c2 -1 -14 -21
-36 -44 -21 -22 -47 -62 -57 -89 -23 -62 -29 -69 -63 -76 -16 -3 -40 -9 -55
-13 -34 -8 -34 12 -2 101 27 74 54 108 106 135 32 16 38 17 69 4 19 -8 36 -16
38 -18z m-1035 -90 c50 -62 120 -79 228 -54 50 11 52 11 73 -14 12 -14 36 -29
52 -34 24 -6 4 -12 -105 -30 -209 -35 -300 -40 -355 -19 -26 9 -44 19 -42 22
3 2 49 10 102 18 96 13 123 24 111 43 -4 6 -20 7 -43 1 -92 -20 -243 -39 -267
-33 -57 14 -21 28 143 55 79 13 101 23 85 39 -7 7 -48 2 -132 -15 -123 -26
-142 -26 -142 0 0 9 24 17 73 25 133 22 167 31 167 47 0 12 -8 14 -37 9 l-38
-5 40 19 40 19 10 -30 c6 -16 22 -44 37 -63z m1534 63 c19 -11 34 -26 34 -32
0 -7 -18 -62 -40 -124 -22 -62 -46 -155 -55 -207 -13 -85 -27 -138 -57 -215
l-9 -24 -30 29 c-26 24 -30 35 -26 64 10 72 57 277 76 333 11 33 24 82 27 110
7 58 19 87 36 87 6 0 26 -9 44 -21z m-381 -66 c-19 -20 -40 -51 -47 -70 -11
-30 -15 -33 -38 -26 -14 4 -44 7 -68 6 -39 0 -42 1 -36 21 10 36 58 100 92
123 l33 22 49 -21 49 -20 -34 -35z m138 -8 l29 -12 -35 -27 c-19 -14 -45 -47
-58 -71 -15 -28 -29 -43 -37 -40 -8 3 -19 5 -26 5 -7 0 -20 6 -31 13 -17 13
-17 16 11 66 15 29 39 61 53 72 25 20 35 19 94 -6z m-1620 -45 c5 -18 0 -20
-38 -20 -23 0 -58 -2 -76 -6 -26 -4 -18 2 31 24 36 16 68 28 71 26 4 -2 9 -13
12 -24z m1710 8 c16 -12 14 -17 -18 -63 -49 -68 -89 -198 -83 -270 3 -30 1
-55 -3 -55 -4 0 -21 11 -36 24 -26 23 -28 29 -27 103 2 108 30 180 92 233 53
45 52 45 75 28z m-2009 -111 c-58 -39 -110 -120 -120 -183 -5 -37 -10 -44 -29
-44 -21 0 -22 2 -12 50 6 34 6 63 -1 92 -6 24 -7 47 -2 52 7 7 183 64 204 65
4 1 -14 -14 -40 -32z m174 12 c-64 -33 -157 -164 -179 -251 -13 -53 -29 -60
-53 -26 -35 50 -6 150 62 209 37 33 104 67 157 80 49 12 52 9 13 -12z m100
-12 c-65 -40 -97 -94 -122 -209 -11 -48 -14 -91 -10 -114 4 -21 3 -35 -2 -33
-129 54 -125 50 -118 88 7 47 42 116 90 180 28 37 56 60 98 81 73 37 121 42
64 7z m832 4 l34 -19 -54 -11 c-30 -6 -107 -17 -170 -25 -63 -9 -135 -18 -160
-21 -33 -5 -56 -2 -88 13 l-43 19 93 12 c51 7 143 20 203 31 139 23 143 23
185 1z m587 -2 c43 -27 39 -30 -90 -57 -56 -12 -137 -39 -186 -62 -48 -22 -95
-40 -104 -40 -9 0 -33 11 -53 25 l-37 25 55 25 c73 33 304 102 347 104 19 0
49 -8 68 -20z m-2058 -2 c8 -10 6 -23 -9 -52 -24 -47 -24 -57 -5 -94 46 -90
171 -42 132 52 -17 39 -14 47 19 47 28 0 34 -17 34 -94 0 -82 -17 -106 -73
-106 -91 0 -162 74 -154 160 5 51 22 100 36 100 4 0 14 -6 20 -13z m790 -6
c11 -7 9 -10 -7 -15 -12 -4 -42 -30 -67 -58 -74 -83 -101 -205 -69 -316 l7
-23 -44 17 c-57 22 -59 24 -70 70 -12 56 17 185 56 244 46 68 147 111 194 81z
m110 -45 l45 -23 -30 -16 c-86 -45 -144 -172 -144 -317 l0 -72 -32 19 c-92 53
-99 215 -16 339 28 41 102 95 127 94 3 -1 26 -11 50 -24z m676 10 c18 -13 17
-15 -23 -27 -23 -6 -42 -18 -42 -24 0 -13 -99 -32 -213 -41 -57 -4 -80 -1
-112 14 l-40 18 135 18 c156 20 241 36 255 48 12 11 18 10 40 -6z m-1488 -64
c11 -26 10 -33 -3 -46 -21 -22 -31 -20 -60 9 -26 26 -26 52 -1 83 14 18 48 -6
64 -46z m1983 -128 c-38 -103 -76 -216 -85 -253 -9 -36 -21 -85 -27 -109 -12
-49 -17 -53 -78 -69 -25 -7 -110 -34 -190 -62 -160 -56 -186 -61 -175 -33 25
58 38 106 50 191 8 55 35 155 62 235 41 117 52 140 73 147 14 5 62 26 107 46
63 27 212 70 324 92 4 0 -24 -83 -61 -185z m255 91 c-16 -88 -31 -116 -21 -41
6 52 27 128 33 123 2 -2 -3 -39 -12 -82z m-1280 25 l25 -10 -41 -41 c-23 -23
-53 -66 -68 -98 -23 -50 -26 -68 -26 -169 0 -61 -1 -112 -2 -112 -1 0 -27 11
-58 24 -63 28 -75 49 -75 131 0 60 36 178 70 224 28 40 108 82 132 70 9 -5 28
-13 43 -19z m1128 -62 c6 -61 2 -66 -28 -45 -17 13 -17 15 0 61 10 25 19 45
20 44 1 -2 5 -29 8 -60z m-536 -5 c2 -6 -16 -69 -40 -140 -26 -74 -54 -181
-65 -249 -24 -140 -56 -222 -78 -203 -8 6 -14 18 -14 26 0 7 -7 16 -15 19 -19
8 -19 36 0 99 9 28 20 82 26 120 6 39 23 108 39 155 15 47 30 107 34 134 4 27
12 60 17 73 l9 24 41 -23 c23 -13 44 -28 46 -35z m-155 0 c-2 -27 -5 -49 -6
-50 -1 -1 -39 12 -86 30 -92 35 -93 34 30 55 30 5 58 10 61 11 4 0 4 -20 1
-46z m-303 17 l47 -21 -36 -38 c-20 -21 -50 -70 -65 -107 -25 -60 -29 -82 -29
-172 -1 -75 -4 -101 -13 -98 -6 3 -30 10 -52 16 -38 10 -42 14 -57 67 -34 118
2 261 86 337 46 42 55 43 119 16z m156 -66 l32 -13 -53 -55 c-70 -72 -99 -159
-92 -277 3 -43 2 -79 -1 -79 -19 0 -72 43 -86 69 -42 83 17 294 102 360 27 22
36 21 98 -5z m123 -49 c2 -2 -12 -23 -30 -47 -68 -89 -117 -250 -99 -328 9
-39 8 -40 -12 -34 -52 15 -62 38 -62 137 0 83 3 99 32 159 37 79 100 133 143
123 14 -4 26 -8 28 -10z m-53 -223 c-8 -49 -22 -107 -30 -128 l-15 -39 4 75
c3 68 40 199 52 187 3 -3 -2 -45 -11 -95z"/>
<path d="M5042 4868 c6 -18 295 -45 311 -29 6 6 8 13 6 16 -6 6 -216 25 -277
25 -31 0 -42 -4 -40 -12z"/>
<path d="M5033 4807 c-10 -17 11 -22 114 -27 98 -5 127 1 107 20 -12 11 -214
18 -221 7z"/>
<path d="M5995 4638 c-31 -102 -31 -103 19 -112 19 -4 39 -13 46 -21 7 -8 18
-15 24 -15 6 0 46 -20 88 -45 91 -53 112 -56 133 -15 8 16 15 31 15 33 0 3
-42 36 -92 75 -51 39 -103 80 -115 91 -25 24 -111 30 -118 9z m66 -35 c13 -16
12 -17 -3 -4 -10 7 -18 15 -18 17 0 8 8 3 21 -13z m-13 -15 c19 -19 14 -29 -8
-16 -20 13 -27 28 -12 28 4 0 13 -5 20 -12z m206 -111 c18 -14 26 -28 22 -36
-6 -8 -32 2 -94 35 -48 26 -91 50 -95 54 -4 4 -3 18 4 32 l11 26 62 -44 c33
-24 74 -54 90 -67z"/>
<path d="M5133 4442 c-43 -38 -106 -88 -141 -111 -35 -23 -66 -49 -69 -57 -6
-15 24 -83 42 -96 6 -4 29 -15 53 -25 l43 -16 83 86 c49 51 118 108 169 141
90 58 97 69 77 120 -9 25 -12 26 -94 26 l-85 0 -78 -68z m150 31 c-7 -2 -21
-2 -30 0 -10 3 -4 5 12 5 17 0 24 -2 18 -5z m81 -19 c4 -9 5 -18 4 -19 -2 -1
-32 -19 -68 -41 -36 -21 -104 -76 -151 -121 l-86 -83 -12 26 c-11 25 -9 29 21
55 18 16 36 28 40 29 4 0 33 21 64 47 68 55 164 123 175 123 4 0 10 -7 13 -16z
m-109 -4 c-3 -5 -22 -10 -41 -10 -21 0 -33 4 -29 10 3 6 22 10 41 10 21 0 33
-4 29 -10z m-50 -40 c-3 -5 -20 -10 -36 -10 -18 0 -28 4 -24 10 3 6 20 10 36
10 18 0 28 -4 24 -10z m-47 -32 c-3 -7 -20 -14 -39 -16 -32 -3 -33 -3 -14 12
24 19 58 21 53 4z m-68 -53 c-14 -8 -33 -14 -44 -15 -15 0 -16 3 -6 15 7 8 27
15 44 15 l31 -1 -25 -14z m-45 -35 c-3 -5 -21 -10 -38 -10 -24 0 -28 3 -17 10
20 13 63 13 55 0z"/>
<path d="M6055 4345 c-52 -26 -80 -79 -80 -152 0 -59 3 -67 28 -89 49 -42 156
-27 214 31 28 28 33 40 33 80 0 58 -34 106 -91 129 -48 20 -66 20 -104 1z m88
-28 c36 -16 77 -56 44 -44 -10 4 -50 7 -89 7 -64 0 -69 2 -57 16 12 15 44 32
62 33 4 1 22 -5 40 -12z m40 -73 c32 -6 37 -10 37 -34 0 -67 -128 -126 -186
-85 -24 16 -37 65 -28 101 6 22 11 24 73 24 36 0 83 -3 104 -6z"/>
<path d="M6060 4165 c-11 -13 -11 -19 3 -32 21 -21 49 -9 45 19 -4 28 -30 35
-48 13z"/>
<path d="M5195 4141 c-53 -24 -79 -64 -79 -122 0 -93 67 -155 156 -145 99 10
152 65 145 147 -9 112 -115 169 -222 120z m115 -22 c10 -7 11 -12 3 -15 -6 -3
-48 -23 -92 -44 l-80 -39 10 27 c14 37 29 53 64 68 37 16 75 17 95 3z m68 -64
c18 -40 14 -71 -13 -103 -30 -35 -109 -58 -148 -43 -23 9 -67 55 -67 71 0 6
145 82 180 93 29 10 37 7 48 -18z"/>
<path d="M5292 3988 c-16 -16 -15 -33 4 -48 12 -11 18 -11 30 2 13 12 14 20 5
37 -13 24 -22 26 -39 9z"/>
<path d="M6103 3742 c-31 -55 -102 -66 -205 -31 -80 27 -133 16 -249 -51 -92
-53 -109 -57 -187 -39 -43 10 -56 9 -103 -9 -30 -11 -103 -29 -164 -40 -131
-24 -165 -36 -165 -58 0 -11 5 -14 18 -9 28 11 173 43 227 51 28 3 71 15 97
26 39 17 53 18 79 9 66 -23 118 -14 203 34 44 25 101 53 126 61 44 14 51 14
106 -5 110 -39 207 -23 240 40 23 45 2 64 -23 21z"/>
<path d="M4250 1561 c0 -153 0 -154 65 -166 21 -3 52 -13 68 -22 16 -8 33 -11
37 -6 4 4 9 71 11 147 l4 139 -50 17 c-27 9 -69 20 -92 24 l-43 6 0 -139z
m114 83 l48 -16 -9 -52 c-4 -28 -7 -77 -7 -108 1 -32 -1 -58 -5 -58 -3 0 -28
6 -56 13 l-50 13 -3 112 c-3 128 -5 125 82 96z"/>
<path d="M6878 2525 c-14 -8 -62 -61 -106 -117 -44 -57 -117 -143 -163 -193
-111 -119 -139 -157 -139 -188 0 -29 24 -47 63 -47 18 0 39 16 73 57 27 32
109 124 181 205 170 190 201 247 151 282 -27 19 -26 19 -60 1z m47 -35 c11
-17 -38 -89 -116 -175 -41 -44 -118 -131 -172 -192 -95 -108 -118 -126 -132
-102 -9 14 26 62 122 167 44 48 110 125 147 172 113 142 133 159 151 130z"/>
<path d="M5452 2358 c-30 -30 -1 -75 43 -64 22 6 26 11 23 39 -2 26 -8 33 -28
35 -14 2 -31 -3 -38 -10z m38 -28 c0 -5 -5 -10 -11 -10 -5 0 -7 5 -4 10 3 6 8
10 11 10 2 0 4 -4 4 -10z"/>
<path d="M8724 4213 c-48 -71 -114 -161 -147 -201 -63 -77 -80 -129 -58 -171
11 -20 19 -21 150 -21 l139 0 -1 -67 -2 -68 68 -3 67 -3 0 71 0 70 40 0 40 0
0 55 0 55 -41 0 -41 0 3 187 3 188 -44 17 c-80 30 -80 30 -176 -109z m95 -70
c-5 -38 -8 -103 -8 -145 l-1 -78 -95 0 c-52 0 -95 2 -95 5 0 3 33 50 73 103
41 53 86 116 102 140 15 23 28 42 29 42 1 0 -1 -30 -5 -67z"/>
<path d="M9911 4228 c-41 -61 -107 -152 -148 -203 -63 -81 -73 -99 -73 -133 0
-74 -4 -72 152 -72 l140 0 -3 -67 -4 -68 70 0 70 0 0 65 1 65 39 5 40 5 3 53
3 52 -47 0 -47 0 7 189 7 190 -52 15 c-29 9 -60 16 -68 16 -9 -1 -49 -50 -90
-112z m81 -165 l-5 -143 -93 0 c-52 0 -94 3 -94 6 0 4 40 62 90 129 49 68 93
130 96 139 4 9 8 16 9 14 1 -2 0 -67 -3 -145z"/>
<path d="M9267 4316 c-149 -55 -232 -245 -181 -416 29 -100 104 -185 183 -208
50 -15 133 -15 183 0 56 17 132 88 165 156 25 51 28 68 28 157 0 90 -3 105
-28 155 -35 67 -79 115 -132 142 -51 27 -165 34 -218 14z m159 -127 c49 -23
77 -63 95 -132 30 -121 -55 -257 -161 -257 -108 0 -180 115 -159 251 10 65 43
114 94 139 51 25 78 25 131 -1z"/>
<path d="M9028 3473 c-26 -31 -28 -41 -18 -67 12 -34 53 -50 83 -35 29 16 37
28 37 60 0 51 -69 79 -102 42z m80 -40 c4 -37 -19 -58 -53 -49 -36 9 -45 54
-16 77 31 25 65 11 69 -28z"/>
<path d="M9184 3482 c-42 -28 -35 -95 13 -113 22 -8 32 -6 52 9 32 23 38 55
17 88 -16 24 -58 32 -82 16z m57 -12 c23 -13 26 -62 4 -80 -23 -19 -64 -4 -71
27 -5 20 -2 31 16 45 26 21 26 21 51 8z"/>
<path d="M9310 3402 c0 -53 4 -81 10 -77 6 3 10 17 10 30 0 22 2 24 24 14 48
-22 98 35 74 86 -12 27 -34 35 -85 32 l-33 -2 0 -83z m90 60 c31 -25 21 -69
-17 -78 -50 -13 -76 50 -35 84 21 16 26 15 52 -6z"/>
<path d="M9467 3483 c-15 -14 -6 -42 20 -61 29 -21 24 -47 -8 -39 -22 6 -26
-8 -4 -17 20 -7 42 2 50 22 4 12 -4 26 -27 45 -26 22 -30 30 -19 36 8 5 21 7
29 3 10 -3 13 -1 8 6 -8 13 -39 16 -49 5z"/>
<path d="M9560 3381 c0 -6 5 -13 10 -16 6 -3 10 1 10 9 0 9 -4 16 -10 16 -5 0
-10 -4 -10 -9z"/>
<path d="M9622 3379 c2 -6 8 -10 13 -10 5 0 11 4 13 10 2 6 -4 11 -13 11 -9 0
-15 -5 -13 -11z"/>
<path d="M9685 3381 c-6 -11 9 -23 19 -14 9 9 7 23 -3 23 -6 0 -12 -4 -16 -9z"/>
<path d="M9595 3218 c-12 -36 -8 -158 5 -158 6 0 10 24 10 54 0 34 5 56 13 59
10 4 10 6 0 6 -15 1 -18 31 -3 31 6 0 10 5 10 10 0 14 -30 12 -35 -2z"/>
<path d="M10188 3193 c0 -21 0 -50 1 -64 3 -46 -47 -77 -77 -47 -35 35 2 97
50 82 14 -4 18 -2 14 5 -11 17 -61 13 -79 -7 -10 -10 -17 -30 -17 -44 0 -39
29 -58 83 -56 l47 2 0 78 c0 78 -19 123 -22 51z"/>
<path d="M9461 3203 c0 -12 -7 -24 -13 -26 -10 -4 -10 -6 0 -6 8 -1 13 -21 14
-58 l2 -58 3 50 c3 31 10 55 20 63 15 11 15 12 1 12 -9 0 -19 10 -21 23 -4 22
-4 22 -6 0z"/>
<path d="M8480 3093 c0 -54 4 -82 10 -78 6 3 10 16 10 28 0 20 4 22 38 19 45
-4 65 14 65 60 0 40 -26 58 -80 56 l-43 -1 0 -84z m95 57 c24 -26 13 -68 -20
-76 -33 -8 -55 11 -55 47 0 46 44 63 75 29z"/>
<path d="M8646 3162 c-9 -10 -16 -30 -16 -44 0 -39 29 -58 83 -56 l47 2 0 56
0 56 -49 2 c-36 1 -52 -3 -65 -16z m79 -8 c24 -25 15 -67 -17 -78 -34 -12 -58
6 -58 45 0 44 44 63 75 33z"/>
<path d="M8814 3172 c-59 -41 -14 -127 57 -109 15 4 19 1 17 -11 -4 -21 -53
-28 -74 -11 -8 6 -18 9 -22 5 -10 -11 28 -36 53 -36 11 0 31 7 43 16 19 13 22
24 22 82 l0 67 -43 2 c-23 2 -47 0 -53 -5z m66 -22 c11 -11 20 -24 20 -30 0
-12 -37 -50 -48 -50 -18 0 -52 33 -52 50 0 17 34 50 52 50 5 0 17 -9 28 -20z"/>
<path d="M8957 3162 c-22 -24 -21 -65 1 -85 23 -21 75 -22 92 -2 18 22 5 31
-15 11 -19 -19 -46 -21 -63 -4 -26 26 -13 38 38 38 37 0 50 4 50 14 0 42 -73
62 -103 28z m71 -4 c21 -21 13 -28 -28 -28 -42 0 -52 12 -22 29 23 14 36 13
50 -1z"/>
<path d="M9162 3115 c1 -47 2 -51 5 -20 5 41 26 75 49 75 18 0 28 -19 35 -70
l6 -45 2 51 c1 61 -11 75 -63 72 l-36 -3 2 -60z"/>
<path d="M9307 3162 c-38 -42 -8 -102 50 -102 37 0 56 21 56 62 0 53 -70 80
-106 40z m78 -12 c24 -26 13 -68 -20 -76 -33 -8 -55 11 -55 47 0 46 44 63 75
29z"/>
<path d="M9666 3158 c-9 -12 -16 -29 -16 -38 0 -9 7 -26 16 -38 23 -34 83 -27
104 11 13 24 13 30 0 55 -21 37 -81 44 -104 10z m79 -8 c36 -40 -7 -96 -55
-70 -24 13 -26 52 -4 74 21 21 37 20 59 -4z"/>
<path d="M9803 3130 c3 -28 9 -55 12 -60 9 -14 69 -12 83 2 14 14 16 108 2
108 -5 0 -10 -22 -10 -49 0 -41 -3 -51 -20 -56 -32 -10 -50 12 -50 61 0 26 -5
44 -11 44 -8 0 -10 -16 -6 -50z"/>
<path d="M9949 3145 c0 -16 -2 -40 -5 -52 -2 -12 1 -25 6 -28 6 -4 10 10 10
34 0 40 20 71 45 71 19 0 27 -15 29 -60 3 -59 16 -61 16 -3 0 60 -13 74 -64
71 -33 -3 -36 -6 -37 -33z"/>
<path d="M7518 1539 c-35 -13 -41 -34 -23 -70 16 -31 20 -32 75 -29 108 5 138
38 77 84 -36 27 -80 32 -129 15z m72 -49 c-20 -13 -50 -13 -50 0 0 6 15 10 33
10 24 0 28 -3 17 -10z"/>
<path d="M3570 1404 c-61 -35 -80 -53 -97 -93 -17 -40 -19 -142 -3 -172 34
-63 186 -78 305 -30 l70 29 3 50 c7 115 -46 196 -148 226 -70 21 -77 20 -130
-10z m122 -36 c53 -16 100 -60 96 -90 -5 -37 -78 -68 -158 -68 -36 0 -76 6
-90 13 -52 26 -28 97 48 137 44 23 53 24 104 8z m112 -183 c-4 -8 -8 -15 -10
-15 -2 0 -4 7 -4 15 0 8 4 15 10 15 5 0 7 -7 4 -15z m-187 -25 c37 0 43 -3 43
-21 0 -20 -4 -21 -46 -15 -52 7 -96 25 -101 43 -3 9 4 10 29 2 18 -5 52 -9 75
-9z m143 5 c0 -8 -4 -15 -10 -15 -5 0 -10 7 -10 15 0 8 5 15 10 15 6 0 10 -7
10 -15z m-40 -10 c0 -16 -27 -32 -37 -22 -3 4 -3 13 0 22 8 20 37 20 37 0z"/>
<path d="M3606 1324 c-21 -20 -20 -58 0 -75 34 -28 114 -9 114 28 0 23 -47 63
-74 63 -13 0 -32 -7 -40 -16z m72 -41 c2 -9 -7 -13 -27 -13 -21 0 -31 5 -31
16 0 19 51 16 58 -3z"/>
<path d="M7487 1263 c-22 -22 20 -160 54 -179 33 -18 218 -19 220 -1 4 31 -3
105 -12 134 -7 22 -19 35 -41 42 -34 12 -210 15 -221 4z m211 -55 c24 -20 11
-28 -45 -27 -83 2 -117 11 -121 33 -4 17 2 17 75 11 43 -4 84 -12 91 -17z m11
-84 c2 -2 -30 -4 -72 -4 -43 0 -77 4 -77 9 0 9 139 4 149 -5z"/>
<path d="M3247 936 c-31 -18 -59 -35 -62 -38 -3 -2 2 -35 9 -72 14 -66 37
-106 61 -106 6 0 35 -12 63 -26 59 -29 85 -27 143 11 20 13 47 25 60 27 23 3
24 7 24 71 l0 68 -58 24 c-32 13 -75 35 -96 49 -48 33 -73 32 -144 -8z m137
-43 c25 -16 46 -31 46 -34 0 -7 -67 -39 -83 -39 -7 0 -31 13 -55 29 l-43 28
33 21 c42 28 48 27 102 -5z m122 -79 c-3 -9 -6 -19 -6 -24 0 -7 -82 -60 -93
-60 -3 0 -7 11 -10 25 -4 23 2 29 42 50 55 29 76 31 67 9z m-207 -25 c74 -46
62 -63 -18 -25 -20 9 -50 56 -36 56 2 0 26 -14 54 -31z"/>
<path d="M3864 866 c-27 -27 -34 -42 -34 -74 0 -24 -6 -45 -16 -53 -25 -20
-44 -65 -44 -102 0 -30 -3 -34 -37 -43 -36 -8 -38 -12 -41 -51 -7 -99 36 -161
94 -135 21 10 31 9 67 -12 23 -13 56 -27 73 -31 19 -4 35 -15 42 -30 14 -29
40 -37 113 -33 l54 3 3 38 c3 31 7 37 25 37 13 0 33 7 46 16 22 16 25 16 51 0
32 -18 70 -20 119 -6 41 11 51 24 51 66 0 32 14 44 51 44 11 0 19 7 19 16 0
13 -8 15 -35 12 -22 -2 -36 1 -39 9 -7 16 2 21 53 29 24 4 40 11 38 18 -4 12
-38 13 -114 1 -45 -6 -53 -5 -53 9 0 8 10 18 23 21 103 22 131 31 127 40 -6
11 -29 12 -81 2 -34 -7 -36 -6 -32 17 4 18 13 26 39 31 22 4 34 12 34 22 0 12
-7 14 -34 10 -31 -5 -35 -2 -47 25 -36 88 -97 112 -151 61 -27 -26 -28 -26
-49 -7 -15 14 -40 20 -94 22 -67 4 -75 6 -94 33 -32 42 -82 40 -127 -5z m195
-72 c38 5 55 1 93 -19 26 -14 49 -25 51 -25 2 0 22 14 43 31 l39 31 24 -29 24
-28 -36 -14 c-42 -16 -45 -27 -17 -73 11 -18 20 -50 20 -70 0 -50 9 -68 34
-68 20 -1 20 -1 2 -12 -13 -7 -29 -7 -58 2 -35 10 -46 9 -82 -8 -22 -11 -54
-24 -71 -29 -20 -6 -31 -16 -33 -31 -2 -13 -10 -22 -20 -22 -9 0 -27 -3 -39
-6 -18 -5 -25 -1 -32 18 -7 19 -19 27 -48 31 -21 4 -55 18 -77 33 -28 19 -47
25 -70 21 -17 -2 -37 -2 -43 0 -18 6 -16 23 2 23 30 0 55 38 55 84 0 40 4 47
45 80 49 40 53 54 29 91 -15 23 -14 24 13 38 27 14 29 14 67 -20 36 -33 42
-35 85 -29z m-209 -328 c6 -8 35 -23 63 -32 29 -10 45 -20 35 -22 -9 -2 -42
10 -73 26 -34 18 -64 28 -77 24 -14 -3 -19 -1 -14 6 10 17 51 15 66 -2z m426
0 c25 -19 12 -31 -15 -14 -18 11 -26 10 -55 -6 -18 -10 -42 -16 -52 -14 -13 3
-5 8 23 17 23 6 45 16 48 21 9 14 28 12 51 -4z m104 -5 c0 -17 -18 -31 -41
-31 -11 0 1 32 15 42 18 13 26 9 26 -11z m-290 -96 c0 -11 -11 -15 -40 -15
-38 0 -49 8 -33 23 3 4 21 7 40 7 23 0 33 -5 33 -15z"/>
<path d="M4005 740 c-46 -10 -74 -28 -95 -63 -30 -49 -26 -83 15 -124 l36 -36
77 5 c94 6 166 36 189 81 14 28 14 33 -2 62 -9 18 -33 40 -53 50 -45 21 -126
33 -167 25z m38 -37 c-7 -2 -19 -2 -25 0 -7 3 -2 5 12 5 14 0 19 -2 13 -5z
m67 -3 c0 -5 -2 -10 -4 -10 -3 0 -8 5 -11 10 -3 6 -1 10 4 10 6 0 11 -4 11
-10z m55 -20 c3 -5 2 -10 -4 -10 -5 0 -13 5 -16 10 -3 6 -2 10 4 10 5 0 13 -4
16 -10z m-37 -50 c44 -27 40 -45 -15 -64 -100 -34 -201 -9 -174 43 16 29 44
40 106 40 33 1 61 -6 83 -19z"/>
<path d="M7075 854 c-55 -7 -106 -13 -112 -13 -7 -1 -13 -8 -13 -17 0 -13 8
-15 48 -10 26 3 77 8 115 12 64 6 89 18 71 33 -5 4 -54 1 -109 -5z"/>
<path d="M7160 794 c-157 -23 -160 -24 -160 -40 0 -13 8 -15 38 -10 20 3 77
11 126 16 49 6 98 15 108 21 19 10 16 30 -5 28 -7 -1 -55 -8 -107 -15z"/>
<path d="M6445 516 c-66 -18 -183 -48 -260 -66 -77 -18 -146 -34 -152 -36 -25
-7 -13 -24 16 -24 32 0 233 47 376 87 49 14 120 31 159 37 38 7 71 17 74 24 7
22 -89 12 -213 -22z"/>
</g>
</svg>
