<svg width="96" height="64" viewBox="0 0 96 64" fill="none" xmlns="http://www.w3.org/2000/svg">
<g clip-path="url(#clip0)">
<path d="M17.3494 35.6135L12.7314 27.2786H18.1378L20.5595 32.4597L24.6425 27.2786H30.1615L22.784 36.4301L27.2612 44.5679H21.9956L19.5739 39.5839L15.6317 44.5679H10L17.3494 35.6135ZM52.2097 32.5724C52.4913 30.9673 51.6184 30.6294 49.8162 30.6576C46.7188 30.6857 46.4372 32.685 46.0148 34.8251C45.9867 34.7969 51.6465 35.7543 52.2097 32.5724ZM50.126 26.9688C53.8429 26.9407 57.1375 27.9825 56.884 31.9529C56.3772 39.8091 46.8314 38.2886 45.6206 37.8099C45.1701 40.4568 45.8177 41.1326 48.1267 41.1607C50.0415 41.2171 53.1671 40.9355 55.1945 40.5976L54.6313 43.8358C52.0408 44.6242 49.2249 45.0185 45.6206 44.7932C41.4813 44.5961 40.1578 41.1326 41.3405 34.7969C42.3542 29.5031 43.7903 26.997 50.126 26.9688Z" fill="#E5E5E5" fill-opacity="0.9"/>
<path d="M42.7203 27.9263C42.9456 27.701 43.1708 27.5039 43.4243 27.3068H36.4973L36.6944 26.0678C37.1167 23.3083 37.2857 22.4635 39.2005 22.4917L42.129 22.5198L42.5513 19.7884C41.6784 19.3661 40.0452 19 38.581 19C34.7514 19 33.0056 20.5206 32.3016 24.9978L31.9356 27.3068L29.2605 30.7703H31.3442L29.0916 44.568H33.6532L35.9059 30.7703H40.9463C41.3687 29.6721 41.9319 28.7147 42.7203 27.9263ZM70.9915 41.02H79.1293C79.4109 41.02 80.2557 40.9918 80.4528 39.9218L80.6217 39.0489C80.7062 38.3449 80.5654 37.9507 79.608 37.9507H75.7503C72.681 37.9507 70.9633 36.2612 71.4984 32.9385L71.7518 31.3898C72.1742 28.6584 73.6384 27.1097 76.9893 27.1097C80.312 27.1097 84.8174 27.1941 86.0282 27.9826L85.5776 30.8548H77.7777C76.5951 30.8548 76.3416 31.4461 76.2572 32.0656L76.1164 32.9103C75.8911 34.1775 76.6795 34.0085 77.299 34.0085H81.2694C84.5921 34.0085 85.6903 36.3175 85.2679 38.8236L84.9863 40.7947C84.4231 44.3427 82.0297 44.8214 80.0304 44.8214C76.7359 44.8214 71.6392 44.6806 70.5691 43.864L70.9915 41.02ZM70.3439 31.1363C70.6254 29.3905 71.2731 28.0671 72.2868 27.166C70.7099 27.1378 69.2457 27.1378 68.9078 27.1378C66.7677 27.1378 64.9656 28.3205 63.5858 29.475L63.2197 27.3068H59.3902L56.6588 44.568H61.2205L62.9382 33.5298C64.3461 31.9248 65.754 31.615 67.6406 31.615C67.9785 31.615 69.0204 31.615 70.2594 31.6432L70.3439 31.1363Z" fill="#E5E5E5" fill-opacity="0.9"/>
</g>
<rect opacity="0.05" width="96" height="64" rx="8" fill="#E0E0E0"/>
<defs>
<clipPath id="clip0">
<rect width="76" height="25.8496" fill="white" transform="translate(10 19)"/>
</clipPath>
</defs>
</svg>
